<?xml version="1.0" encoding="iso-8859-1"?>
<!-- Generator: Adobe Illustrator 19.0.0, SVG Export Plug-In . SVG Version: 6.00 Build 0)  -->
<svg version="1.1" id="Capa_1" xmlns="http://www.w3.org/2000/svg" xmlns:xlink="http://www.w3.org/1999/xlink" x="0px" y="0px"
	 viewBox="0 0 386.444 386.444" style="enable-background:new 0 0 386.444 386.444;" xml:space="preserve">
<g>
	<g id="Dibujo_36_">
		<g>
			<path d="M303.939,177.695c5.217-10.572,7.972-22.198,7.972-34.161c0-42.619-34.669-77.288-77.288-77.288
				c-25.4,0-49.105,12.592-63.464,33.239c-0.927-0.028-1.844-0.116-2.777-0.116c-42.309,0-78.497,27.669-90.051,67.262
				c-3.18-0.58-6.52-1.016-9.319-1.016c-33.482,0-60.726,27.244-60.726,60.726s27.244,60.726,60.726,60.726
				c6.095,0,11.041-4.946,11.041-11.041c0-6.095-4.946-11.041-11.041-11.041c-21.304,0-38.644-17.34-38.644-38.644
				s17.34-38.644,38.644-38.644c1.529,0,3.991,0.375,6.586,0.894v10.147c0,6.095,4.946,11.041,11.041,11.041
				s11.041-4.946,11.041-11.041v-17.771c5.924-34.52,35.53-59.517,70.702-59.517c35.166,0,64.773,24.997,70.702,59.523v17.765
				c0,6.095,4.941,11.041,11.041,11.041s11.041-4.946,11.041-11.041v-10.147c2.595-0.519,5.057-0.894,6.586-0.894
				c21.304,0,38.644,17.34,38.644,38.644s-17.34,38.644-38.644,38.644c-6.095,0-11.041,4.946-11.041,11.041
				c0,6.095,4.946,11.041,11.041,11.041c33.482,0,60.726-27.244,60.726-60.726C328.478,206.43,318.795,188.77,303.939,177.695z
				 M258.428,166.632c-8.877-30.424-32.323-53.743-61.891-62.94c10.147-9.677,23.716-15.364,38.086-15.364
				c30.44,0,55.205,24.765,55.205,55.205c0,8.551-1.987,16.843-5.714,24.384c-5.217-1.463-10.688-2.302-16.363-2.302
				C264.948,165.616,261.613,166.053,258.428,166.632z"/>
			<path d="M234.623,44.164c6.095,0,11.041-4.946,11.041-11.041V11.041C245.664,4.946,240.718,0,234.623,0
				c-6.1,0-11.041,4.946-11.041,11.041v22.082C223.582,39.218,228.523,44.164,234.623,44.164z"/>
			<path d="M367.116,132.493h-22.082c-6.1,0-11.041,4.946-11.041,11.041c0,6.095,4.941,11.041,11.041,11.041h22.082
				c6.095,0,11.041-4.946,11.041-11.041C378.158,137.44,373.211,132.493,367.116,132.493z"/>
			<path d="M312.7,76.498c2.827,0,5.648-1.077,7.806-3.235l15.612-15.612c4.312-4.312,4.312-11.301,0-15.612
				c-4.312-4.312-11.301-4.312-15.612,0l-15.612,15.612c-4.312,4.312-4.312,11.301,0,15.612
				C307.047,75.422,309.874,76.498,312.7,76.498z"/>
			<path d="M148.746,73.263c2.159,2.159,4.98,3.235,7.806,3.235s5.648-1.077,7.806-3.235c4.312-4.312,4.312-11.301,0-15.612
				l-15.612-15.612c-4.312-4.312-11.301-4.312-15.612,0s-4.312,11.301,0,15.612L148.746,73.263z"/>
			<path d="M176.58,232.194c-5.901-1.48-11.908,2.12-13.393,8.032L130.064,372.72c-1.48,5.918,2.12,11.913,8.032,13.393
				c0.9,0.226,1.8,0.331,2.689,0.331c4.946,0,9.446-3.345,10.699-8.364l33.123-132.493
				C186.092,239.664,182.498,233.668,176.58,232.194z"/>
			<path d="M220.745,265.318c-5.896-1.474-11.908,2.12-13.393,8.032l-16.562,66.247c-1.48,5.918,2.12,11.913,8.032,13.393
				c0.9,0.226,1.8,0.331,2.689,0.331c4.941,0,9.446-3.345,10.699-8.364l16.562-66.247
				C230.257,272.787,226.663,266.792,220.745,265.318z"/>
			<path d="M115.854,265.318c-5.896-1.474-11.908,2.12-13.393,8.032L85.9,339.596c-1.48,5.918,2.12,11.913,8.032,13.393
				c0.9,0.226,1.8,0.331,2.688,0.331c4.946,0,9.446-3.345,10.699-8.364l16.562-66.247
				C125.366,272.787,121.772,266.792,115.854,265.318z"/>
		</g>
	</g>
</g>
<g>
</g>
<g>
</g>
<g>
</g>
<g>
</g>
<g>
</g>
<g>
</g>
<g>
</g>
<g>
</g>
<g>
</g>
<g>
</g>
<g>
</g>
<g>
</g>
<g>
</g>
<g>
</g>
<g>
</g>
</svg>
