<?xml version="1.0" encoding="UTF-8" standalone="no"?>
<!-- Created with Inkscape (http://www.inkscape.org/) -->

<svg
   xmlns:dc="http://purl.org/dc/elements/1.1/"
   xmlns:cc="http://creativecommons.org/ns#"
   xmlns:rdf="http://www.w3.org/1999/02/22-rdf-syntax-ns#"
   xmlns:svg="http://www.w3.org/2000/svg"
   xmlns="http://www.w3.org/2000/svg"
   xmlns:sodipodi="http://sodipodi.sourceforge.net/DTD/sodipodi-0.dtd"
   xmlns:inkscape="http://www.inkscape.org/namespaces/inkscape"
   width="210mm"
   height="297mm"
   viewBox="0 0 210 297"
   version="1.1"
   id="svg4708"
   inkscape:version="0.92.4 (unknown)"
   sodipodi:docname="lune.svg">
  <defs
     id="defs4702" />
  <sodipodi:namedview
     id="base"
     pagecolor="#ffffff"
     bordercolor="#666666"
     borderopacity="1.0"
     inkscape:pageopacity="0.0"
     inkscape:pageshadow="2"
     inkscape:zoom="0.35"
     inkscape:cx="400"
     inkscape:cy="560"
     inkscape:document-units="mm"
     inkscape:current-layer="layer1"
     showgrid="false"
     inkscape:window-width="1600"
     inkscape:window-height="871"
     inkscape:window-x="0"
     inkscape:window-y="0"
     inkscape:window-maximized="1" />
  <metadata
     id="metadata4705">
    <rdf:RDF>
      <cc:Work
         rdf:about="">
        <dc:format>image/svg+xml</dc:format>
        <dc:type
           rdf:resource="http://purl.org/dc/dcmitype/StillImage" />
        <dc:title></dc:title>
      </cc:Work>
    </rdf:RDF>
  </metadata>
  <g
     inkscape:label="Calque 1"
     inkscape:groupmode="layer"
     id="layer1">
    <path
       inkscape:connector-curvature="0"
       style="fill:#010202;stroke-width:0.26458332"
       d="m 106.96158,88.35714 c -17.506955,0 -31.750005,-14.24307 -31.750005,-31.75 0,-17.50695 14.24305,-31.75 31.750005,-31.75 0.84815,0 1.71709,0.0354 2.58254,0.10515 0.94645,0.0765 1.77922,0.65397 2.18255,1.51334 0.40333,0.85939 0.31523,1.86914 -0.23074,2.64583 -3.13947,4.46511 -4.79893,9.72034 -4.79893,15.19727 0,6.69158 2.50359,13.07724 7.04969,17.98108 4.5217,4.87773 10.64844,7.85715 17.25141,8.38941 0.94621,0.0762 1.77922,0.65371 2.18255,1.51334 0.40333,0.85939 0.31523,1.86915 -0.23074,2.64583 -5.94744,8.45865 -15.6626,13.50875 -25.98833,13.50875 z M 104.6864,30.2457 c -13.527725,1.15805 -24.183158,12.53903 -24.183158,26.36144 0,14.58929 11.869183,26.45834 26.458338,26.45834 7.1148,0 13.88211,-2.87761 18.81513,-7.86025 -6.06835,-1.44359 -11.59851,-4.65632 -15.91067,-9.30772 -5.456,-5.88542 -8.46071,-13.54878 -8.46071,-21.57878 0,-4.93665 1.12398,-9.72394 3.28107,-14.07303 z"
       id="path142" />
  </g>
</svg>
