<?xml version="1.0" encoding="UTF-8" standalone="no"?>
<!-- Created with Inkscape (http://www.inkscape.org/) -->

<svg
   xmlns:dc="http://purl.org/dc/elements/1.1/"
   xmlns:cc="http://creativecommons.org/ns#"
   xmlns:rdf="http://www.w3.org/1999/02/22-rdf-syntax-ns#"
   xmlns:svg="http://www.w3.org/2000/svg"
   xmlns="http://www.w3.org/2000/svg"
   xmlns:sodipodi="http://sodipodi.sourceforge.net/DTD/sodipodi-0.dtd"
   xmlns:inkscape="http://www.inkscape.org/namespaces/inkscape"
   width="210mm"
   height="297mm"
   viewBox="0 0 210 297"
   version="1.1"
   id="svg4418"
   inkscape:version="0.92.4 (unknown)"
   sodipodi:docname="neige.svg">
  <defs
     id="defs4412" />
  <sodipodi:namedview
     id="base"
     pagecolor="#ffffff"
     bordercolor="#666666"
     borderopacity="1.0"
     inkscape:pageopacity="0.0"
     inkscape:pageshadow="2"
     inkscape:zoom="0.35"
     inkscape:cx="400"
     inkscape:cy="560"
     inkscape:document-units="mm"
     inkscape:current-layer="layer1"
     showgrid="false"
     inkscape:window-width="1600"
     inkscape:window-height="871"
     inkscape:window-x="0"
     inkscape:window-y="0"
     inkscape:window-maximized="1" />
  <metadata
     id="metadata4415">
    <rdf:RDF>
      <cc:Work
         rdf:about="">
        <dc:format>image/svg+xml</dc:format>
        <dc:type
           rdf:resource="http://purl.org/dc/dcmitype/StillImage" />
        <dc:title></dc:title>
      </cc:Work>
    </rdf:RDF>
  </metadata>
  <g
     inkscape:label="Calque 1"
     inkscape:groupmode="layer"
     id="layer1">
    <path
       inkscape:connector-curvature="0"
       style="fill:#010202;stroke-width:0.26458332"
       d="m 130.93299,84.001058 h -2.80035 v 0 l -60.92781,-0.024 c -10.171086,0 -18.445903,-8.29768 -18.445903,-18.49718 0,-8.80438 6.081792,-16.1644 14.361266,-18.03612 -0.134488,-0.74051 -0.202168,-1.49629 -0.202168,-2.26419 0,-6.94611 5.650944,-12.597186 12.597024,-12.597186 2.307352,0 4.518448,0.615476 6.447658,1.769296 5.287036,-6.991562 13.444537,-11.086413 22.346973,-11.086413 13.91295,0 25.64067,10.246913 27.72273,23.750613 9.63144,0.64775 17.26819,8.68733 17.26819,18.47678 0,10.10611 -8.22767,18.40894 -18.3405,18.50816 -0.009,2.7e-4 -0.018,2.7e-4 -0.0271,2.7e-4 z m -2.79829,-5.2927 h 2.78641 c 7.21791,-0.078 13.08782,-6.0044 13.08782,-13.21676 0,-7.29348 -5.93659,-13.22724 -13.23356,-13.22724 -0.31186,0 -0.64518,0.0204 -0.9299,0.0401 -0.69919,0.0482 -1.39528,-0.18436 -1.92548,-0.64801 -0.52993,-0.46369 -0.85345,-1.11946 -0.8984,-1.82211 -0.7656,-11.93184 -10.74171,-21.278428 -22.71191,-21.278428 -8.027036,0 -15.308131,4.10374 -19.476985,10.977378 -0.421931,0.6958 -1.140751,1.15869 -1.948842,1.25521 -0.807587,0.0959 -1.615545,-0.18436 -2.1894,-0.76145 -1.381443,-1.38906 -3.220879,-2.154 -5.179404,-2.154 -4.028176,0 -7.305358,3.27719 -7.305358,7.30549 0,1.14928 0.260827,2.25076 0.775256,3.27396 0.403992,0.80356 0.372084,1.75739 -0.08475,2.53227 -0.456803,0.77476 -1.276006,1.26439 -2.174796,1.29993 -7.107317,0.28059 -12.674811,6.07623 -12.674811,13.19416 0,7.2816 5.900922,13.20551 13.154236,13.20551 h 2.720764 z"
       id="path156" />
    <path
       inkscape:connector-curvature="0"
       style="fill:#010202;stroke-width:0.26458332"
       d="m 73.630395,119.70999 c -0.677598,0 -1.355063,-0.25863 -1.871847,-0.77592 -1.032749,-1.03378 -1.031849,-2.70888 0.0026,-3.74163 L 88.139801,98.830398 c 1.03378,-1.03251 2.70899,-1.03199 3.741764,0.003 1.032748,1.03378 1.031849,2.708882 -0.0026,3.741632 l -16.378627,16.36209 c -0.516493,0.51599 -1.193191,0.77412 -1.869916,0.77412 z"
       id="path158" />
    <path
       inkscape:connector-curvature="0"
       style="fill:#010202;stroke-width:0.26458332"
       d="m 90.000722,119.71827 c -0.677598,0 -1.35509,-0.25866 -1.871848,-0.77594 L 71.766829,102.56375 c -1.032748,-1.03378 -1.031848,-2.708892 0.0026,-3.741642 1.033912,-1.03248 2.709148,-1.03198 3.741764,0.003 l 16.362091,16.378632 c 1.032748,1.03378 1.031848,2.70888 -0.0026,3.74163 -0.516493,0.51599 -1.193218,0.77412 -1.869916,0.77412 z"
       id="path160" />
    <path
       inkscape:connector-curvature="0"
       style="fill:#010202;stroke-width:0.26458332"
       d="m 95.048866,111.4937 c 0,0 0,0 0,0 l -26.458333,0.008 c -1.461268,0 -2.645305,-1.18986 -2.644537,-2.65099 0,-1.4609 1.185201,-2.64843 2.645833,-2.64843 0,0 0,0 0,0 l 26.458333,0.0275 c 1.461268,0 2.645305,1.17221 2.644537,2.63337 0,1.46063 -1.185333,2.63078 -2.645833,2.63078 z"
       id="path162" />
    <path
       inkscape:connector-curvature="0"
       style="fill:#010202;stroke-width:0.26458332"
       d="m 81.812979,124.72286 c 0,0 0,0 0,0 -1.461267,0 -2.645304,-1.1684 -2.644537,-2.62956 l 0.01349,-26.467112 c 0,-1.4609 1.185333,-2.65333 2.645833,-2.65333 0,0 0,0 0,0 1.461267,0 2.645304,1.20354 2.644537,2.6647 l -0.01349,26.449552 c 0,1.4609 -1.185333,2.63575 -2.645833,2.63575 z"
       id="path164" />
    <path
       inkscape:connector-curvature="0"
       style="fill:#010202;stroke-width:0.26458332"
       d="m 110.33035,107.98384 c -0.91157,0 -1.79832,-0.4713 -2.28952,-1.31593 -0.73482,-1.26299 -0.3067,-2.88253 0.95655,-3.61736 l 16.00883,-9.313122 c 1.26322,-0.73588 2.88277,-0.3067 3.61736,0.95652 0.73483,1.26296 0.3067,2.88251 -0.95652,3.61736 l -16.00886,9.313122 c -0.41857,0.24366 -0.87617,0.35941 -1.32784,0.35941 z"
       id="path166" />
    <path
       inkscape:connector-curvature="0"
       style="fill:#010202;stroke-width:0.26458332"
       d="m 126.4689,107.74458 c -0.42632,0 -0.8586,-0.10335 -1.25986,-0.32091 l -16.27807,-8.834602 c -1.28415,-0.69713 -1.76035,-2.30323 -1.06325,-3.58765 0.69686,-1.28415 2.30269,-1.76008 3.58764,-1.06322 l 16.27807,8.834592 c 1.28416,0.6971 1.76035,2.30323 1.06326,3.58762 -0.4793,0.88315 -1.3888,1.38417 -2.32779,1.38417 z"
       id="path168" />
    <path
       inkscape:connector-curvature="0"
       style="fill:#010202;stroke-width:0.26458332"
       d="m 118.32754,112.55203 c 0,0 0,0 0,0 -1.4614,0 -2.6453,-1.24619 -2.64453,-2.70732 l 0.009,-18.202782 c 0,-1.46087 1.1852,-2.63782 2.64583,-2.63782 0,0 0,0 0,0 1.4614,0 2.6453,1.14917 2.64454,2.6103 l -0.009,18.251282 c 0,1.4609 -1.18521,2.68634 -2.64584,2.68634 z"
       id="path170" />
  </g>
</svg>
