<?xml version="1.0" encoding="UTF-8" standalone="no"?>
<!-- Created with Inkscape (http://www.inkscape.org/) -->

<svg
   xmlns:dc="http://purl.org/dc/elements/1.1/"
   xmlns:cc="http://creativecommons.org/ns#"
   xmlns:rdf="http://www.w3.org/1999/02/22-rdf-syntax-ns#"
   xmlns:svg="http://www.w3.org/2000/svg"
   xmlns="http://www.w3.org/2000/svg"
   xmlns:sodipodi="http://sodipodi.sourceforge.net/DTD/sodipodi-0.dtd"
   xmlns:inkscape="http://www.inkscape.org/namespaces/inkscape"
   width="210mm"
   height="297mm"
   viewBox="0 0 210 297"
   version="1.1"
   id="svg4821"
   inkscape:version="0.92.4 (unknown)"
   sodipodi:docname="nuage_vent_pluie.svg">
  <defs
     id="defs4815" />
  <sodipodi:namedview
     id="base"
     pagecolor="#ffffff"
     bordercolor="#666666"
     borderopacity="1.0"
     inkscape:pageopacity="0.0"
     inkscape:pageshadow="2"
     inkscape:zoom="0.35"
     inkscape:cx="400"
     inkscape:cy="560"
     inkscape:document-units="mm"
     inkscape:current-layer="layer1"
     showgrid="false"
     inkscape:window-width="1600"
     inkscape:window-height="871"
     inkscape:window-x="0"
     inkscape:window-y="0"
     inkscape:window-maximized="1" />
  <metadata
     id="metadata4818">
    <rdf:RDF>
      <cc:Work
         rdf:about="">
        <dc:format>image/svg+xml</dc:format>
        <dc:type
           rdf:resource="http://purl.org/dc/dcmitype/StillImage" />
        <dc:title></dc:title>
      </cc:Work>
    </rdf:RDF>
  </metadata>
  <g
     inkscape:label="Calque 1"
     inkscape:groupmode="layer"
     id="layer1">
    <path
       inkscape:connector-curvature="0"
       style="fill:#010202;stroke-width:0.26458332"
       d="M 157.66248,89.548325 H 73.602247 c -1.461162,0 -2.645833,-1.18467 -2.645833,-2.64584 0,-1.46116 1.184671,-2.64583 2.645833,-2.64583 h 84.060233 c 2.35231,0 4.33954,-2.01306 4.33954,-4.39587 0,-2.42387 -1.91357,-4.39584 -4.2659,-4.39584 -2.33188,0 -4.22921,1.95803 -4.22921,4.3646 0,1.46113 -1.18467,2.64583 -2.64583,2.64583 -1.46113,0 -2.64583,-1.1847 -2.64583,-2.64583 0,-5.32448 4.27106,-9.65626 9.52087,-9.65626 5.26997,0 9.55757,4.34572 9.55757,9.6875 0,5.34181 -4.32041,9.68754 -9.63121,9.68754 z"
       id="path100" />
    <path
       inkscape:connector-curvature="0"
       style="fill:#010202;stroke-width:0.26458332"
       d="m 138.0562,119.33332 c -3.21402,0 -6.21823,-1.25005 -8.45891,-3.51967 -2.22623,-2.25515 -3.45226,-5.26608 -3.45226,-8.47805 0,-1.46113 1.1847,-2.64583 2.64583,-2.64583 1.46117,0 2.64584,1.1847 2.64584,2.64583 0,3.7605 2.90758,6.70605 6.6195,6.70605 3.74499,0 6.67867,-2.93883 6.67867,-6.69028 0,-3.68916 -3.04893,-6.69054 -6.79649,-6.69054 H 66.987664 c -1.461162,0 -2.645834,-1.184675 -2.645834,-2.645845 0,-1.46116 1.184672,-2.64583 2.645834,-2.64583 h 70.950716 c 6.66547,0 12.08815,5.375125 12.08815,11.982215 0,6.60683 -5.36995,11.98195 -11.97033,11.98195 z"
       id="path102" />
    <path
       inkscape:connector-curvature="0"
       style="fill:#010202;stroke-width:0.26458332"
       d="M 109.0988,79.758735 H 80.481414 c -1.461162,0 -2.645834,-1.18467 -2.645834,-2.64583 0,-1.46116 1.184672,-2.64583 2.645834,-2.64583 H 109.0988 c 3.74756,0 6.79648,-3.02022 6.79648,-6.73267 0,-3.71242 -2.99595,-6.73293 -6.67866,-6.73293 -3.71192,0 -6.61951,2.95823 -6.61951,6.73449 0,1.46114 -1.18467,2.64583 -2.645829,2.64583 -1.461135,0 -2.645833,-1.18469 -2.645833,-2.64583 0,-6.63112 5.343342,-12.02616 11.911172,-12.02616 6.60037,0 11.97033,5.39425 11.97033,12.0246 0,6.63035 -5.42269,12.02433 -12.08815,12.02433 z"
       id="path104" />
    <path
       inkscape:connector-curvature="0"
       style="fill:#010202;stroke-width:0.26458332"
       d="m 93.964051,133.45312 c -0.67773,0 -1.355222,-0.25863 -1.871715,-0.77591 -1.032748,-1.03378 -1.031981,-2.70912 0.0026,-3.74163 l 6.625695,-6.61898 c 1.03378,-1.03275 2.709409,-1.03198 3.741629,0.003 1.03275,1.03378 1.03198,2.70912 -0.003,3.74163 l -6.625693,6.61897 c -0.516519,0.51599 -1.193218,0.77409 -1.869916,0.77409 z"
       id="path106" />
    <path
       inkscape:connector-curvature="0"
       style="fill:#010202;stroke-width:0.26458332"
       d="m 70.945301,118.37188 c -0.67773,0 -1.354958,-0.25863 -1.871715,-0.77592 -1.032748,-1.03378 -1.031981,-2.70888 0.0026,-3.74163 l 4.1783,-4.17415 c 1.03378,-1.03277 2.708883,-1.03198 3.741631,0.003 1.032748,1.03378 1.031981,2.70889 -0.0026,3.74163 l -4.1783,4.17418 c -0.516519,0.51599 -1.193218,0.77409 -1.869916,0.77409 z"
       id="path108" />
    <path
       inkscape:connector-curvature="0"
       style="fill:#010202;stroke-width:0.26458332"
       d="m 107.72238,118.37188 c -0.67773,0 -1.35495,-0.25863 -1.87171,-0.77592 -1.03275,-1.03378 -1.03198,-2.70888 0.003,-3.74163 l 4.1783,-4.17415 c 1.03378,-1.03277 2.70888,-1.03198 3.74163,0.003 1.03275,1.03378 1.03198,2.70889 -0.003,3.74163 l -4.1783,4.17418 c -0.51652,0.51599 -1.19322,0.77409 -1.86992,0.77409 z"
       id="path110" />
    <path
       inkscape:connector-curvature="0"
       style="fill:#010202;stroke-width:0.26458332"
       d="m 119.09947,128.46919 c -0.67826,0 -1.35649,-0.25916 -1.87352,-0.77745 -1.03171,-1.03484 -1.02941,-2.70991 0.005,-3.74189 l 5.02502,-5.01108 c 1.03482,-1.03171 2.70965,-1.02965 3.7419,0.005 1.03172,1.03481 1.02939,2.70992 -0.005,3.74187 l -5.02502,5.01108 c -0.51649,0.51496 -1.19242,0.77229 -1.86835,0.77229 z"
       id="path112" />
    <path
       inkscape:connector-curvature="0"
       style="fill:#010202;stroke-width:0.26458332"
       d="m 79.676551,127.94003 c -0.67773,0 -1.355222,-0.25863 -1.871715,-0.77592 -1.032748,-1.03378 -1.031981,-2.70888 0.0026,-3.74163 l 13.756269,-13.7423 c 1.03378,-1.03275 2.709386,-1.03198 3.741632,0.003 1.032748,1.03378 1.031981,2.70889 -0.0026,3.74163 l -13.75627,13.74237 c -0.516519,0.51597 -1.193218,0.77409 -1.869916,0.77409 z"
       id="path114" />
    <path
       inkscape:connector-curvature="0"
       style="fill:#010202;stroke-width:0.26458332"
       d="M 127.78241,80.023325 H 125.196 c -1.46116,0 -2.64584,-1.18467 -2.64584,-2.64584 0,-1.46116 1.18468,-2.64583 2.64584,-2.64583 h 2.54066 c 6.65956,-0.24133 11.86982,-5.50638 11.86982,-12.00417 0,-6.61099 -5.36996,-11.989198 -11.97034,-11.989198 -0.33951,0 -0.60692,0.0074 -0.84153,0.02381 -0.70641,0.04961 -1.39552,-0.184467 -1.92521,-0.648017 -0.52994,-0.463522 -0.85318,-1.119292 -0.8984,-1.82184 -0.69762,-10.87583 -9.78802,-19.394938 -20.69512,-19.394938 -7.31531,0 -13.950054,3.738272 -17.748016,9.999637 -0.421931,0.695828 -1.140751,1.158848 -1.948709,1.255236 -0.80563,0.09586 -1.615413,-0.184229 -2.189268,-0.761471 -1.233011,-1.23944 -2.872952,-1.922092 -4.618329,-1.922092 -3.591507,0 -6.513539,2.921768 -6.513539,6.513036 0,1.024229 0.232543,2.006336 0.691171,2.918937 0.404099,0.80383 0.372058,1.757521 -0.08477,2.532142 -0.457068,0.774885 -1.276138,1.264523 -2.174796,1.299924 -6.428554,0.253734 -11.464422,5.506134 -11.464422,11.957424 0,6.57659 5.344901,11.96231 11.914796,12.00546 h 2.283301 c 1.461162,0 2.645066,1.18597 2.644299,2.64737 0,1.46063 -1.185201,2.6443 -2.645833,2.6443 0,0 0,0 -0.0026,0 H 69.11983 c -9.484175,-0.0626 -17.187333,-7.82201 -17.187333,-17.29713 0,-8.14655 5.572548,-14.967324 13.188103,-16.784244 -0.103373,-0.630714 -0.155284,-1.272805 -0.155284,-1.924183 0,-6.509173 5.295794,-11.804703 11.805206,-11.804703 2.097801,0 4.111122,0.543375 5.880788,1.564244 4.908184,-6.395483 12.424758,-10.135553 20.62348,-10.135553 12.85788,0 23.7045,9.434301 25.70128,21.89271 8.89379,0.687546 15.92099,8.152469 15.92099,17.229189 0,9.3821 -7.47964,16.97882 -17.0284,17.29428 -0.0289,0 -0.0581,0.003 -0.0873,0.003 z"
       id="path116" />
  </g>
</svg>
