<?xml version="1.0" encoding="UTF-8" standalone="no"?>
<!-- Created with Inkscape (http://www.inkscape.org/) -->

<svg
   xmlns:dc="http://purl.org/dc/elements/1.1/"
   xmlns:cc="http://creativecommons.org/ns#"
   xmlns:rdf="http://www.w3.org/1999/02/22-rdf-syntax-ns#"
   xmlns:svg="http://www.w3.org/2000/svg"
   xmlns="http://www.w3.org/2000/svg"
   xmlns:sodipodi="http://sodipodi.sourceforge.net/DTD/sodipodi-0.dtd"
   xmlns:inkscape="http://www.inkscape.org/namespaces/inkscape"
   width="210mm"
   height="297mm"
   viewBox="0 0 210 297"
   version="1.1"
   id="svg4200"
   inkscape:version="0.92.4 (unknown)"
   sodipodi:docname="nuage_soleil_pluie.svg">
  <defs
     id="defs4194" />
  <sodipodi:namedview
     id="base"
     pagecolor="#ffffff"
     bordercolor="#666666"
     borderopacity="1.0"
     inkscape:pageopacity="0.0"
     inkscape:pageshadow="2"
     inkscape:zoom="0.35"
     inkscape:cx="400"
     inkscape:cy="560"
     inkscape:document-units="mm"
     inkscape:current-layer="layer1"
     showgrid="false"
     inkscape:window-width="1600"
     inkscape:window-height="871"
     inkscape:window-x="0"
     inkscape:window-y="0"
     inkscape:window-maximized="1" />
  <metadata
     id="metadata4197">
    <rdf:RDF>
      <cc:Work
         rdf:about="">
        <dc:format>image/svg+xml</dc:format>
        <dc:type
           rdf:resource="http://purl.org/dc/dcmitype/StillImage" />
        <dc:title></dc:title>
      </cc:Work>
    </rdf:RDF>
  </metadata>
  <g
     inkscape:label="Calque 1"
     inkscape:groupmode="layer"
     id="layer1">
    <path
       inkscape:connector-curvature="0"
       style="fill:#010202;stroke-width:0.26458332"
       d="m 130.6109,144.91932 c -0.66558,0 -1.32987,-0.26265 -1.82417,-0.78367 -0.95525,-1.00719 -0.91339,-2.59805 0.0938,-3.55341 3.83387,-3.63685 5.94537,-8.54882 5.94537,-13.83106 0,-10.50983 -8.55038,-19.06008 -19.06008,-19.06008 -9.23097,0 -17.118856,6.58099 -18.755965,15.64814 -0.24675,1.36581 -1.55493,2.27312 -2.919968,2.02688 -1.366335,-0.24663 -2.27375,-1.55404 -2.026999,-2.92011 2.069385,-11.46248 12.038012,-19.78199 23.702932,-19.78199 13.28164,0 24.08717,10.80541 24.08717,24.08716 0,6.6753 -2.66806,12.88253 -7.51271,17.47813 -0.48602,0.4612 -1.10848,0.69001 -1.72937,0.69001 z"
       id="path36" />
    <path
       inkscape:connector-curvature="0"
       style="fill:#010202;stroke-width:0.26458332"
       d="m 108.31613,100.55588 c -1.15626,0 -2.19702,-0.802408 -2.45332,-1.978306 l -2.65076,-12.149646 c -0.29609,-1.356249 0.56354,-2.695572 1.91979,-2.991549 1.35882,-0.296235 2.69598,0.56392 2.99154,1.920039 l 2.65076,12.149646 c 0.29609,1.356249 -0.56354,2.695576 -1.91979,2.991546 -0.18061,0.0394 -0.36095,0.0583 -0.53822,0.0583 z"
       id="path38" />
    <path
       inkscape:connector-curvature="0"
       style="fill:#010202;stroke-width:0.26458332"
       d="m 145.2604,124.04488 c -1.15625,0 -2.19702,-0.8024 -2.45335,-1.9783 -0.29609,-1.35625 0.56354,-2.69557 1.9198,-2.99155 l 12.92505,-2.81985 c 1.35908,-0.29624 2.69594,0.56392 2.99153,1.92004 0.29612,1.35624 -0.56353,2.69557 -1.91976,2.99154 l -12.92505,2.81986 c -0.18063,0.0394 -0.36097,0.0583 -0.53822,0.0583 z"
       id="path40" />
    <path
       inkscape:connector-curvature="0"
       style="fill:#010202;stroke-width:0.26458332"
       d="m 131.73281,104.79709 c -0.46484,0 -0.93509,-0.12868 -1.35548,-0.39843 -1.16814,-0.74982 -1.50741,-2.30477 -0.75758,-3.47304 l 7.0931,-11.051391 c 0.74983,-1.168276 2.30452,-1.507403 3.47319,-0.757706 1.16813,0.749824 1.50738,2.30477 0.75758,3.473043 l -7.09311,11.051394 c -0.48008,0.74801 -1.29037,1.15613 -2.1177,1.15613 z"
       id="path42" />
    <path
       inkscape:connector-curvature="0"
       style="fill:#010202;stroke-width:0.26458332"
       d="m 90.260144,113.84512 c -0.464846,0 -0.93509,-0.12868 -1.355222,-0.39843 l -11.051514,-7.09298 c -1.1684,-0.74982 -1.507675,-2.30477 -0.757846,-3.47304 0.749829,-1.16827 2.304786,-1.5074 3.472921,-0.75771 l 11.051514,7.09298 c 1.168426,0.74983 1.507675,2.30477 0.757846,3.47304 -0.480087,0.74802 -1.290373,1.15614 -2.117699,1.15614 z"
       id="path44" />
    <path
       inkscape:connector-curvature="0"
       style="fill:#010202;stroke-width:0.26458332"
       d="m 151.5737,153.41932 c -0.46482,0 -0.93508,-0.12869 -1.35545,-0.39843 l -11.05128,-7.09298 c -1.16814,-0.74983 -1.50738,-2.30476 -0.75758,-3.47305 0.74983,-1.16827 2.30452,-1.50778 3.47318,-0.75769 l 11.05125,7.09298 c 1.16816,0.74983 1.50741,2.30476 0.75758,3.47302 -0.48006,0.74803 -1.29035,1.15615 -2.1177,1.15615 z"
       id="path46" />
    <path
       inkscape:connector-curvature="0"
       style="fill:#010202;stroke-width:0.26458332"
       d="m 67.79305,181.97689 c -9.286531,-0.0611 -16.828188,-7.64127 -16.828188,-16.89756 0,-8.00508 5.495528,-14.70271 12.993529,-16.45172 -0.110331,-0.64272 -0.165629,-1.29772 -0.165629,-1.96291 0,-6.35712 5.171784,-11.52904 11.529007,-11.52904 2.075841,0 4.067201,0.54467 5.811546,1.56657 4.813644,-6.3124 12.208563,-10.00662 20.276025,-10.00662 12.63229,0 23.28513,9.28148 25.21731,21.52894 8.74212,0.63677 15.66002,7.953 15.66002,16.85478 0,9.22565 -7.50572,16.8053 -16.73127,16.89626 z m 7.528719,-41.81412 c -3.585051,0 -6.501924,2.91674 -6.501924,6.50193 0,1.02293 0.23204,2.00324 0.689875,2.91351 0.383963,0.76351 0.353721,1.66965 -0.08035,2.4058 -0.433811,0.73613 -1.212056,1.20134 -2.066026,1.23505 -6.376617,0.25181 -11.371394,5.46142 -11.371394,11.86027 0,6.50245 5.301482,11.82756 11.817614,11.87047 h 57.721026 c 6.4562,-0.0637 11.729,-5.38831 11.729,-11.86931 0,-6.54661 -5.32627,-11.87278 -11.87291,-11.87278 -0.24495,0 -0.51004,0.0103 -0.83484,0.0329 -0.66945,0.0475 -1.32575,-0.17545 -1.82883,-0.61574 -0.50358,-0.4404 -0.81055,-1.06336 -0.85344,-1.7309 -0.68961,-10.7496 -9.67665,-19.17015 -20.46022,-19.17015 -7.231358,0 -13.790908,3.69668 -17.546245,9.88856 -0.401002,0.66093 -1.083654,1.1007 -1.851289,1.1923 -0.768165,0.0912 -1.53506,-0.17532 -2.079996,-0.72322 -1.229889,-1.23661 -2.867263,-1.91756 -4.610047,-1.91756 z"
       id="path48" />
    <path
       inkscape:connector-curvature="0"
       style="fill:#010202;stroke-width:0.26458332"
       d="m 89.843902,208.23974 c -0.643652,0 -1.287278,-0.24571 -1.778186,-0.73705 -0.981101,-0.9821 -0.980307,-2.5736 0.0026,-3.55467 l 6.002735,-5.99668 c 0.982106,-0.98094 2.573496,-0.98028 3.554571,0.003 0.981075,0.9821 0.980281,2.5736 -0.0026,3.55467 l -6.002734,5.99668 c -0.49067,0.49027 -1.133528,0.73536 -1.77636,0.73536 z"
       id="path50" />
    <path
       inkscape:connector-curvature="0"
       style="fill:#010202;stroke-width:0.26458332"
       d="m 68.989337,194.57648 c -0.643625,0 -1.28725,-0.24572 -1.778185,-0.73716 -0.981075,-0.98211 -0.980281,-2.57347 0.0026,-3.55468 l 3.785552,-3.78169 c 0.981843,-0.98081 2.573232,-0.98017 3.554572,0.003 0.981075,0.98211 0.980307,2.5735 -0.0026,3.5547 l -3.785553,3.78167 c -0.490669,0.49016 -1.133528,0.73522 -1.776386,0.73522 z"
       id="path52" />
    <path
       inkscape:connector-curvature="0"
       style="fill:#010202;stroke-width:0.26458332"
       d="m 102.30877,194.57648 c -0.64363,0 -1.28726,-0.24559 -1.77819,-0.73703 -0.981074,-0.9821 -0.980307,-2.5736 0.003,-3.5547 l 3.78531,-3.78166 c 0.98211,-0.98084 2.57347,-0.98044 3.55455,0.003 0.98107,0.98213 0.98031,2.57363 -0.003,3.5547 l -3.78531,3.78169 c -0.49065,0.49014 -1.13351,0.73533 -1.77636,0.73533 z"
       id="path54" />
    <path
       inkscape:connector-curvature="0"
       style="fill:#010202;stroke-width:0.26458332"
       d="m 113.0957,200.60829 c -0.64389,0 -1.28752,-0.24585 -1.77845,-0.73729 -0.98108,-0.98224 -0.98005,-2.57373 0.003,-3.5547 l 9.82601,-9.81348 c 0.98211,-0.98107 2.5735,-0.97991 3.55457,0.003 0.98108,0.98224 0.98005,2.57373 -0.003,3.5547 l -9.82601,9.81348 c -0.49067,0.49014 -1.13327,0.73509 -1.77612,0.73509 z"
       id="path56" />
    <path
       inkscape:connector-curvature="0"
       style="fill:#010202;stroke-width:0.26458332"
       d="m 76.899718,203.24507 c -0.643626,0 -1.287251,-0.24572 -1.778186,-0.73702 -0.981075,-0.98211 -0.980307,-2.5736 0.0026,-3.5547 l 12.462874,-12.45026 c 0.982107,-0.98108 2.573469,-0.98018 3.554544,0.003 0.981075,0.98213 0.980308,2.57363 -0.0026,3.5547 l -12.462801,12.45029 c -0.49067,0.49027 -1.133528,0.73533 -1.776386,0.73533 z"
       id="path58" />
  </g>
</svg>
