<?xml version="1.0" encoding="UTF-8" standalone="no"?>
<!-- Created with Inkscape (http://www.inkscape.org/) -->

<svg
   xmlns:dc="http://purl.org/dc/elements/1.1/"
   xmlns:cc="http://creativecommons.org/ns#"
   xmlns:rdf="http://www.w3.org/1999/02/22-rdf-syntax-ns#"
   xmlns:svg="http://www.w3.org/2000/svg"
   xmlns="http://www.w3.org/2000/svg"
   xmlns:sodipodi="http://sodipodi.sourceforge.net/DTD/sodipodi-0.dtd"
   xmlns:inkscape="http://www.inkscape.org/namespaces/inkscape"
   width="210mm"
   height="297mm"
   viewBox="0 0 210 297"
   version="1.1"
   id="svg441"
   inkscape:version="0.92.4 (unknown)"
   sodipodi:docname="nuage_lune.svg">
  <defs
     id="defs435" />
  <sodipodi:namedview
     id="base"
     pagecolor="#ffffff"
     bordercolor="#666666"
     borderopacity="1.0"
     inkscape:pageopacity="0.0"
     inkscape:pageshadow="2"
     inkscape:zoom="0.35"
     inkscape:cx="400"
     inkscape:cy="560"
     inkscape:document-units="mm"
     inkscape:current-layer="layer1"
     showgrid="false"
     inkscape:window-width="1600"
     inkscape:window-height="871"
     inkscape:window-x="0"
     inkscape:window-y="0"
     inkscape:window-maximized="1" />
  <metadata
     id="metadata438">
    <rdf:RDF>
      <cc:Work
         rdf:about="">
        <dc:format>image/svg+xml</dc:format>
        <dc:type
           rdf:resource="http://purl.org/dc/dcmitype/StillImage" />
        <dc:title></dc:title>
      </cc:Work>
    </rdf:RDF>
  </metadata>
  <g
     inkscape:label="Calque 1"
     inkscape:groupmode="layer"
     id="layer1">
    <path
       inkscape:connector-curvature="0"
       style="fill:#010202;stroke-width:0.26458332"
       d="m 54.997418,124.89446 c -10.178971,-0.067 -18.445903,-8.37623 -18.445903,-18.52253 0,-8.817023 6.081791,-16.187103 14.361398,-18.061043 -0.13462,-0.74078 -0.2023,-1.49667 -0.2023,-2.2647 0,-6.94597 5.651076,-12.59692 12.596892,-12.59692 2.307351,0 4.51858,0.61561 6.447922,1.76954 5.286772,-6.99104 13.44414,-11.08538 22.346708,-11.08538 13.913885,0 25.642365,10.24951 27.723365,23.7554 9.63043,0.64881 17.26769,8.69095 17.26769,18.483103 0,10.11296 -8.22741,18.42151 -18.3405,18.5211 z m 8.310087,-46.153523 c -4.028176,0 -7.305226,3.27708 -7.305226,7.30525 0,1.14901 0.260959,2.25049 0.775388,3.27396 0.40386,0.80356 0.372084,1.75738 -0.08475,2.53227 -0.456829,0.77475 -1.276138,1.26439 -2.174795,1.29992 -7.107317,0.2806 -12.674945,6.08735 -12.674945,13.219593 0,7.24763 5.908676,13.18305 13.171541,13.23086 H 118.7266 c 7.19776,-0.071 13.07492,-6.00583 13.07492,-13.22953 0,-7.297113 -5.93659,-13.233693 -13.23356,-13.233693 -0.27181,0 -0.5674,0.0116 -0.9299,0.0369 -0.69972,0.0483 -1.39555,-0.18437 -1.92548,-0.64802 -0.52994,-0.46366 -0.85344,-1.11932 -0.8984,-1.82211 -0.76557,-11.93273 -10.74198,-21.27995 -22.712045,-21.27995 -8.027167,0 -15.308368,4.10337 -19.477117,10.97658 -0.421931,0.69583 -1.140751,1.15872 -1.948709,1.25508 -0.808223,0.096 -1.615413,-0.18434 -2.189533,-0.76145 -1.381575,-1.38932 -3.220984,-2.15439 -5.179271,-2.15439 z"
       id="path60" />
    <path
       inkscape:connector-curvature="0"
       style="fill:#010202;stroke-width:0.26458332"
       d="m 134.18018,91.865857 c -1.19941,0 -2.28563,-0.82113 -2.57297,-2.03928 -0.33539,-1.42226 0.5457,-2.84699 1.9681,-3.18238 4.85191,-1.14411 9.24854,-3.63439 12.72273,-7.15393 -6.07015,-1.44307 -11.60161,-4.65619 -15.91479,-9.30876 -5.45598,-5.88542 -8.46072,-13.5489 -8.46072,-21.57878 0,-4.93664 1.12422,-9.72434 3.28144,-14.073556 -6.08668,0.516763 -11.76618,3.102136 -16.18737,7.409756 -4.95887,4.83123 -7.79486,11.29686 -7.98581,18.20588 -0.0406,1.46076 -1.253674,2.62218 -2.717931,2.57167 -1.460633,-0.0403 -2.611994,-1.25717 -2.571671,-2.71793 0.229182,-8.29277 3.632332,-16.05251 9.582622,-21.849828 5.96165,-5.808559 13.82991,-9.007462 22.15497,-9.007462 0.84826,0 1.7172,0.03527 2.58202,0.104902 0.94644,0.07609 1.77948,0.653576 2.18308,1.513086 0.40333,0.85951 0.31522,1.869265 -0.23075,2.645963 -3.1396,4.465489 -4.79893,9.720599 -4.79893,15.197519 0,6.69158 2.50372,13.07738 7.04969,17.98122 4.52194,4.87772 10.64845,7.85714 17.25142,8.38927 0.94617,0.0763 1.77921,0.65384 2.18254,1.51321 0.40334,0.85952 0.31523,1.86928 -0.23074,2.64583 -4.48834,6.38373 -11.12155,10.88062 -18.67741,12.66227 -0.2041,0.0482 -0.40849,0.0713 -0.60952,0.0713 z"
       id="path62" />
  </g>
</svg>
