<?xml version="1.0" encoding="UTF-8" standalone="no"?>
<!-- Created with Inkscape (http://www.inkscape.org/) -->

<svg
   xmlns:dc="http://purl.org/dc/elements/1.1/"
   xmlns:cc="http://creativecommons.org/ns#"
   xmlns:rdf="http://www.w3.org/1999/02/22-rdf-syntax-ns#"
   xmlns:svg="http://www.w3.org/2000/svg"
   xmlns="http://www.w3.org/2000/svg"
   xmlns:sodipodi="http://sodipodi.sourceforge.net/DTD/sodipodi-0.dtd"
   xmlns:inkscape="http://www.inkscape.org/namespaces/inkscape"
   width="210mm"
   height="297mm"
   viewBox="0 0 210 297"
   version="1.1"
   id="svg4592"
   inkscape:version="0.92.4 (unknown)"
   sodipodi:docname="nuage_pluie_neige.svg">
  <defs
     id="defs4586" />
  <sodipodi:namedview
     id="base"
     pagecolor="#ffffff"
     bordercolor="#666666"
     borderopacity="1.0"
     inkscape:pageopacity="0.0"
     inkscape:pageshadow="2"
     inkscape:zoom="0.35"
     inkscape:cx="400"
     inkscape:cy="560"
     inkscape:document-units="mm"
     inkscape:current-layer="layer1"
     showgrid="false"
     inkscape:window-width="1600"
     inkscape:window-height="871"
     inkscape:window-x="0"
     inkscape:window-y="0"
     inkscape:window-maximized="1" />
  <metadata
     id="metadata4589">
    <rdf:RDF>
      <cc:Work
         rdf:about="">
        <dc:format>image/svg+xml</dc:format>
        <dc:type
           rdf:resource="http://purl.org/dc/dcmitype/StillImage" />
        <dc:title></dc:title>
      </cc:Work>
    </rdf:RDF>
  </metadata>
  <g
     inkscape:label="Calque 1"
     inkscape:groupmode="layer"
     id="layer1">
    <path
       inkscape:connector-curvature="0"
       style="fill:#010202;stroke-width:0.26458332"
       d="m 76.052391,101.22569 c -0.911315,0 -1.798212,-0.4713 -2.289395,-1.31593 -0.734838,-1.26299 -0.30657,-2.88253 0.95653,-3.61735 l 16.008972,-9.31313 c 1.262713,-0.73535 2.88264,-0.3067 3.617353,0.95653 0.73484,1.26296 0.30657,2.8825 -0.956531,3.61735 l -16.008972,9.31312 c -0.418452,0.24366 -0.876305,0.35941 -1.327957,0.35941 z"
       id="path172" />
    <path
       inkscape:connector-curvature="0"
       style="fill:#010202;stroke-width:0.26458332"
       d="m 92.191069,100.98643 c -0.426331,0 -0.858734,-0.10334 -1.259742,-0.32091 L 74.65338,91.83092 c -1.284287,-0.69712 -1.760357,-2.30322 -1.063371,-3.58764 0.697116,-1.28416 2.303219,-1.75985 3.587507,-1.06323 l 16.277947,8.8346 c 1.284288,0.69709 1.760358,2.30322 1.063368,3.58761 -0.47942,0.88316 -1.3888,1.38417 -2.327762,1.38417 z"
       id="path174" />
    <path
       inkscape:connector-curvature="0"
       style="fill:#010202;stroke-width:0.26458332"
       d="m 84.049705,105.79388 c -5.29e-4,0 -7.93e-4,0 -0.0013,0 -1.46128,0 -2.645317,-1.24618 -2.644542,-2.70732 l 0.0093,-18.20278 c 7.93e-4,-1.46087 1.185328,-2.63781 2.645833,-2.63781 5.29e-4,0 7.94e-4,0 0.0013,0 1.46128,0 2.645317,1.14916 2.644542,2.6103 l -0.0093,18.25127 c -7.94e-4,1.4609 -1.185328,2.68634 -2.645833,2.68634 z"
       id="path176" />
    <path
       inkscape:connector-curvature="0"
       style="fill:#010202;stroke-width:0.26458332"
       d="m 101.18781,92.22986 c -0.91132,0 -1.798209,-0.4713 -2.289399,-1.31593 -0.73484,-1.26299 -0.30657,-2.88253 0.95653,-3.61736 l 16.008969,-9.31312 c 1.26259,-0.73536 2.88251,-0.30697 3.61736,0.95652 0.73483,1.26297 0.30657,2.88251 -0.95653,3.61736 l -16.00898,9.31312 c -0.41845,0.24366 -0.8763,0.35941 -1.32795,0.35941 z"
       id="path178" />
    <path
       inkscape:connector-curvature="0"
       style="fill:#010202;stroke-width:0.26458332"
       d="m 117.32649,91.9906 c -0.42634,0 -0.85874,-0.10335 -1.25975,-0.32091 l -16.277939,-8.8346 c -1.28429,-0.69712 -1.76036,-2.30322 -1.06337,-3.58764 0.69711,-1.28416 2.303209,-1.76009 3.587499,-1.06323 l 16.27795,8.83459 c 1.28429,0.6971 1.76036,2.30323 1.06337,3.58762 -0.47943,0.88315 -1.3888,1.38417 -2.32776,1.38417 z"
       id="path180" />
    <path
       inkscape:connector-curvature="0"
       style="fill:#010202;stroke-width:0.26458332"
       d="m 109.18512,96.79805 c -5.3e-4,0 -7.9e-4,0 -0.001,0 -1.46128,0 -2.64532,-1.24619 -2.64454,-2.70732 l 0.009,-18.20278 c 7.9e-4,-1.46087 1.18533,-2.63782 2.64583,-2.63782 5.3e-4,0 8e-4,0 10e-4,0 1.46128,0 2.64532,1.14917 2.64455,2.6103 l -0.009,18.25128 c -8e-4,1.4609 -1.18533,2.68634 -2.64584,2.68634 z"
       id="path182" />
    <path
       inkscape:connector-curvature="0"
       style="fill:#010202;stroke-width:0.26458332"
       d="m 79.557475,122.97577 c -0.677609,0 -1.355085,-0.25863 -1.871851,-0.77592 -1.032753,-1.03378 -1.031848,-2.70912 0.0019,-3.74163 l 6.625693,-6.61898 c 1.033788,-1.03274 2.709008,-1.03198 3.741762,0.003 1.032753,1.03378 1.031848,2.70913 -0.0019,3.74164 l -6.625694,6.61897 c -0.516506,0.51599 -1.193337,0.77409 -1.86991,0.77409 z"
       id="path184" />
    <path
       inkscape:connector-curvature="0"
       style="fill:#010202;stroke-width:0.26458332"
       d="m 66.592891,114.24452 c -0.677608,0 -1.355085,-0.25863 -1.87185,-0.77592 -1.032754,-1.03378 -1.031849,-2.70888 0.0019,-3.74163 l 4.178297,-4.17415 c 1.033788,-1.03251 2.709008,-1.03198 3.741762,0.003 1.032753,1.03378 1.031848,2.70889 -0.0019,3.74163 l -4.178297,4.17418 c -0.516506,0.51599 -1.19321,0.77409 -1.869911,0.77409 z"
       id="path186" />
    <path
       inkscape:connector-curvature="0"
       style="fill:#010202;stroke-width:0.26458332"
       d="m 97.019971,110.27577 c -0.6776,0 -1.35508,-0.25863 -1.87185,-0.77592 -1.03275,-1.03378 -1.03184,-2.70888 0.002,-3.74163 l 4.1783,-4.17415 c 1.033919,-1.03251 2.709139,-1.03198 3.741759,0.003 1.03276,1.03378 1.03185,2.70889 -0.002,3.74163 l -4.178299,4.17418 c -0.5165,0.51599 -1.19321,0.77409 -1.86991,0.77409 z"
       id="path188" />
    <path
       inkscape:connector-curvature="0"
       style="fill:#010202;stroke-width:0.26458332"
       d="m 107.86789,115.03827 c -0.67761,0 -1.35508,-0.25863 -1.87185,-0.77592 -1.03275,-1.03378 -1.03185,-2.70888 0.002,-3.74163 l 13.75622,-13.7423 c 1.03379,-1.03275 2.70901,-1.03198 3.74176,0.003 1.03275,1.03378 1.03185,2.70888 -0.002,3.74163 l -13.75622,13.74237 c -0.5165,0.51599 -1.19334,0.77409 -1.86991,0.77409 z"
       id="path190" />
    <path
       inkscape:connector-curvature="0"
       style="fill:#010202;stroke-width:0.26458332"
       d="m 128.00839,91.79499 h -2.66805 c -1.46128,0 -2.64532,-1.1857 -2.6448,-2.64686 5.3e-4,-1.4609 1.18507,-2.6448 2.64583,-2.6448 2.7e-4,0 5.3e-4,0 0.001,0 h 2.65424 c 3.49616,-0.038 6.76935,-1.42497 9.21765,-3.90674 2.45282,-2.48666 3.80377,-5.79292 3.80377,-9.31002 0,-7.29335 -5.95144,-13.2271 -13.26663,-13.2271 -0.3337,0 -0.70009,0.0228 -0.94671,0.0398 -0.70215,0.0512 -1.39527,-0.18423 -1.92534,-0.64802 -0.52994,-0.46355 -0.8533,-1.11932 -0.89839,-1.82187 -0.76537,-11.93181 -10.74526,-21.27853 -22.7201,-21.27853 -8.029615,0 -15.312248,4.10363 -19.481112,10.97735 -0.421939,0.69583 -1.140757,1.15885 -1.948847,1.25524 -0.808091,0.0953 -1.615535,-0.1845 -2.189401,-0.76145 -1.38131,-1.38906 -3.221508,-2.15389 -5.181468,-2.15389 -4.028823,0 -7.306402,3.27708 -7.306402,7.30525 0,1.15007 0.260577,2.25155 0.774628,3.27396 0.404109,0.80356 0.3722,1.75752 -0.08462,2.5324 -0.456819,0.77462 -1.276019,1.26453 -2.174803,1.29993 C 56.561388,60.36023 50.99377,66.156 50.99377,73.2739 c 0,7.2815 5.900803,13.20541 13.153977,13.20541 h 3.249903 c 1.461281,0 2.645833,1.18467 2.645833,2.64583 0,1.46117 -1.184552,2.64584 -2.645833,2.64584 h -3.24993 c -10.170955,0 -18.445643,-8.29768 -18.445643,-18.49708 0,-8.80435 6.082316,-16.16463 14.361784,-18.03635 -0.134358,-0.74028 -0.201924,-1.4963 -0.201924,-2.2642 0,-6.9461 5.651463,-12.59692 12.598069,-12.59692 2.308386,0 4.520266,0.61548 6.449735,1.76914 5.287274,-6.991562 13.446336,-11.086386 22.351089,-11.086386 13.91659,0 25.64727,10.247176 27.73061,23.749446 9.65729,0.63873 17.31819,8.68241 17.31819,18.47795 0,4.91675 -1.89226,9.54283 -5.32823,13.02607 -3.43984,3.48686 -8.03749,5.43404 -12.94611,5.48209 -0.009,2.6e-4 -0.018,2.6e-4 -0.027,2.6e-4 z"
       id="path192" />
  </g>
</svg>
