<?xml version="1.0" encoding="UTF-8"?>
<!DOCTYPE svg PUBLIC "-//W3C//DTD SVG 1.1//EN" "http://www.w3.org/Graphics/SVG/1.1/DTD/svg11.dtd">
<svg version="1.2" width="116.99mm" height="101.99mm" viewBox="3031 1431 11699 10199" preserveAspectRatio="xMidYMid" fill-rule="evenodd" stroke-width="28.222" stroke-linejoin="round" xmlns="http://www.w3.org/2000/svg" xmlns:ooo="http://xml.openoffice.org/svg/export" xmlns:xlink="http://www.w3.org/1999/xlink" xmlns:presentation="http://sun.com/xmlns/staroffice/presentation" xmlns:smil="http://www.w3.org/2001/SMIL20/" xmlns:anim="urn:oasis:names:tc:opendocument:xmlns:animation:1.0" xml:space="preserve">
 <defs class="ClipPathGroup">
  <clipPath id="presentation_clip_path" clipPathUnits="userSpaceOnUse">
   <rect x="3031" y="1431" width="11699" height="10199"/>
  </clipPath>
  <clipPath id="presentation_clip_path_shrink" clipPathUnits="userSpaceOnUse">
   <rect x="3042" y="1441" width="11676" height="10179"/>
  </clipPath>
 </defs>
 <defs class="TextShapeIndex">
  <g ooo:slide="id1" ooo:id-list="id3"/>
 </defs>
 <defs class="EmbeddedBulletChars">
  <g id="bullet-char-template-57356" transform="scale(0.00048828125,-0.00048828125)">
   <path d="M 580,1141 L 1163,571 580,0 -4,571 580,1141 Z"/>
  </g>
  <g id="bullet-char-template-57354" transform="scale(0.00048828125,-0.00048828125)">
   <path d="M 8,1128 L 1137,1128 1137,0 8,0 8,1128 Z"/>
  </g>
  <g id="bullet-char-template-10146" transform="scale(0.00048828125,-0.00048828125)">
   <path d="M 174,0 L 602,739 174,1481 1456,739 174,0 Z M 1358,739 L 309,1346 659,739 1358,739 Z"/>
  </g>
  <g id="bullet-char-template-10132" transform="scale(0.00048828125,-0.00048828125)">
   <path d="M 2015,739 L 1276,0 717,0 1260,543 174,543 174,936 1260,936 717,1481 1274,1481 2015,739 Z"/>
  </g>
  <g id="bullet-char-template-10007" transform="scale(0.00048828125,-0.00048828125)">
   <path d="M 0,-2 C -7,14 -16,27 -25,37 L 356,567 C 262,823 215,952 215,954 215,979 228,992 255,992 264,992 276,990 289,987 310,991 331,999 354,1012 L 381,999 492,748 772,1049 836,1024 860,1049 C 881,1039 901,1025 922,1006 886,937 835,863 770,784 769,783 710,716 594,584 L 774,223 C 774,196 753,168 711,139 L 727,119 C 717,90 699,76 672,76 641,76 570,178 457,381 L 164,-76 C 142,-110 111,-127 72,-127 30,-127 9,-110 8,-76 1,-67 -2,-52 -2,-32 -2,-23 -1,-13 0,-2 Z"/>
  </g>
  <g id="bullet-char-template-10004" transform="scale(0.00048828125,-0.00048828125)">
   <path d="M 285,-33 C 182,-33 111,30 74,156 52,228 41,333 41,471 41,549 55,616 82,672 116,743 169,778 240,778 293,778 328,747 346,684 L 369,508 C 377,444 397,411 428,410 L 1163,1116 C 1174,1127 1196,1133 1229,1133 1271,1133 1292,1118 1292,1087 L 1292,965 C 1292,929 1282,901 1262,881 L 442,47 C 390,-6 338,-33 285,-33 Z"/>
  </g>
  <g id="bullet-char-template-9679" transform="scale(0.00048828125,-0.00048828125)">
   <path d="M 813,0 C 632,0 489,54 383,161 276,268 223,411 223,592 223,773 276,916 383,1023 489,1130 632,1184 813,1184 992,1184 1136,1130 1245,1023 1353,916 1407,772 1407,592 1407,412 1353,268 1245,161 1136,54 992,0 813,0 Z"/>
  </g>
  <g id="bullet-char-template-8226" transform="scale(0.00048828125,-0.00048828125)">
   <path d="M 346,457 C 273,457 209,483 155,535 101,586 74,649 74,723 74,796 101,859 155,911 209,963 273,989 346,989 419,989 480,963 531,910 582,859 608,796 608,723 608,648 583,586 532,535 482,483 420,457 346,457 Z"/>
  </g>
  <g id="bullet-char-template-8211" transform="scale(0.00048828125,-0.00048828125)">
   <path d="M -4,459 L 1135,459 1135,606 -4,606 -4,459 Z"/>
  </g>
  <g id="bullet-char-template-61548" transform="scale(0.00048828125,-0.00048828125)">
   <path d="M 173,740 C 173,903 231,1043 346,1159 462,1274 601,1332 765,1332 928,1332 1067,1274 1183,1159 1299,1043 1357,903 1357,740 1357,577 1299,437 1183,322 1067,206 928,148 765,148 601,148 462,206 346,322 231,437 173,577 173,740 Z"/>
  </g>
 </defs>
 <defs class="TextEmbeddedBitmaps"/>
 <g class="SlideGroup">
  <g>
   <g id="container-id1">
    <g id="id1" class="Slide" clip-path="url(#presentation_clip_path)">
     <g class="Page">
      <g class="Graphic">
       <g id="id3">
        <rect class="BoundingBox" stroke="none" fill="none" x="3031" y="1431" width="11700" height="10200"/>
        <defs>
         <clipPath id="clip_path_1" clipPathUnits="userSpaceOnUse">
          <path d="M 3031,1431 L 14730,1431 14730,11630 3031,11630 3031,1431 Z"/>
         </clipPath>
        </defs>
        <g clip-path="url(#clip_path_1)">
         <path fill="rgb(1,2,2)" stroke="none" d="M 12199,8278 L 11919,8278 C 11772,8278 11654,8160 11654,8014 11654,7868 11773,7749 11919,7749 11919,7749 11919,7749 11919,7749 L 12197,7749 C 12919,7742 13506,7149 13506,6428 13506,5699 12912,5106 12183,5106 12152,5106 12118,5108 12090,5110 12020,5114 11950,5091 11897,5045 11844,4998 11812,4933 11807,4863 11731,3670 10734,2735 9537,2735 8734,2735 8006,3145 7589,3833 7547,3902 7475,3949 7395,3958 7314,3968 7233,3940 7176,3882 7038,3743 6854,3667 6658,3667 6255,3667 5927,3994 5927,4397 5927,4512 5953,4622 6005,4724 6045,4805 6042,4900 5996,4978 5951,5055 5869,5104 5779,5108 5068,5136 4512,5715 4512,6427 4512,7155 5102,7747 5827,7747 L 6099,7747 C 6245,7747 6364,7865 6364,8012 6364,8158 6245,8276 6099,8276 L 5827,8276 C 4810,8276 3983,7446 3983,6427 3983,5546 4591,4811 5419,4623 5405,4549 5398,4474 5398,4397 5398,3703 5963,3138 6658,3138 6889,3138 7110,3199 7302,3315 7831,2616 8647,2206 9537,2206 10928,2206 12100,3231 12308,4581 13271,4645 14035,5449 14035,6428 14035,7438 13212,8269 12201,8278 12200,8278 12199,8278 12199,8278 L 12199,8278 Z"/>
         <path fill="rgb(1,2,2)" stroke="none" d="M 6523,10765 C 6455,10765 6388,10739 6336,10688 6233,10584 6233,10417 6336,10313 L 7472,9175 6788,9175 C 6679,9175 6582,9110 6542,9009 6502,8908 6527,8794 6605,8719 L 8272,7136 C 8378,7036 8545,7040 8646,7146 8747,7252 8742,7419 8636,7520 L 7450,8646 8110,8646 C 8217,8646 8314,8711 8355,8810 8396,8908 8373,9022 8297,9098 L 6710,10687 C 6659,10739 6591,10765 6523,10765 L 6523,10765 Z"/>
         <path fill="rgb(1,2,2)" stroke="none" d="M 9219,9835 C 9152,9835 9084,9809 9032,9758 8929,9654 8929,9487 9032,9383 L 10167,8250 9484,8250 C 9376,8250 9279,8184 9238,8083 9198,7983 9223,7868 9301,7794 L 10968,6203 C 11074,6102 11241,6106 11342,6212 11443,6318 11439,6485 11333,6586 L 10144,7721 10807,7721 C 10914,7721 11010,7785 11051,7884 11092,7983 11069,8097 10994,8172 L 9406,9758 C 9355,9809 9287,9835 9219,9835 L 9219,9835 Z"/>
         <path fill="rgb(1,2,2)" stroke="none" d="M 7870,11105 C 7802,11105 7735,11079 7683,11027 7580,10924 7580,10756 7683,10653 L 8346,9991 C 8449,9888 8617,9888 8720,9992 8823,10095 8823,10263 8720,10366 L 8057,11028 C 8006,11079 7938,11105 7870,11105 L 7870,11105 Z"/>
         <path fill="rgb(1,2,2)" stroke="none" d="M 5463,10232 C 5395,10232 5328,10206 5276,10154 5173,10051 5173,9884 5276,9780 L 5694,9363 C 5797,9260 5965,9260 6068,9363 6171,9467 6171,9634 6068,9737 L 5650,10155 C 5598,10206 5531,10232 5463,10232 L 5463,10232 Z"/>
         <path fill="rgb(1,2,2)" stroke="none" d="M 10198,10602 C 10130,10602 10063,10576 10011,10525 9908,10421 9908,10254 10011,10151 L 11387,8777 C 11490,8673 11657,8674 11761,8777 11864,8880 11864,9048 11760,9151 L 10385,10525 C 10333,10577 10266,10602 10198,10602 L 10198,10602 Z"/>
        </g>
       </g>
      </g>
     </g>
    </g>
   </g>
  </g>
 </g>
</svg>