<?xml version="1.0" encoding="UTF-8" standalone="no"?>
<!-- Created with Inkscape (http://www.inkscape.org/) -->

<svg
   xmlns:dc="http://purl.org/dc/elements/1.1/"
   xmlns:cc="http://creativecommons.org/ns#"
   xmlns:rdf="http://www.w3.org/1999/02/22-rdf-syntax-ns#"
   xmlns:svg="http://www.w3.org/2000/svg"
   xmlns="http://www.w3.org/2000/svg"
   xmlns:sodipodi="http://sodipodi.sourceforge.net/DTD/sodipodi-0.dtd"
   xmlns:inkscape="http://www.inkscape.org/namespaces/inkscape"
   width="210mm"
   height="297mm"
   viewBox="0 0 210 297"
   version="1.1"
   id="svg4302"
   inkscape:version="0.92.4 (unknown)"
   sodipodi:docname="orage.svg">
  <defs
     id="defs4296" />
  <sodipodi:namedview
     id="base"
     pagecolor="#ffffff"
     bordercolor="#666666"
     borderopacity="1.0"
     inkscape:pageopacity="0.0"
     inkscape:pageshadow="2"
     inkscape:zoom="0.35"
     inkscape:cx="400"
     inkscape:cy="560"
     inkscape:document-units="mm"
     inkscape:current-layer="layer1"
     showgrid="false"
     inkscape:window-width="1600"
     inkscape:window-height="871"
     inkscape:window-x="0"
     inkscape:window-y="0"
     inkscape:window-maximized="1" />
  <metadata
     id="metadata4299">
    <rdf:RDF>
      <cc:Work
         rdf:about="">
        <dc:format>image/svg+xml</dc:format>
        <dc:type
           rdf:resource="http://purl.org/dc/dcmitype/StillImage" />
        <dc:title></dc:title>
      </cc:Work>
    </rdf:RDF>
  </metadata>
  <g
     inkscape:label="Calque 1"
     inkscape:groupmode="layer"
     id="layer1">
    <path
       inkscape:connector-curvature="0"
       style="fill:#010202;stroke-width:0.26458332"
       d="m 121.86168,82.666859 h -2.80034 c -1.46115,0 -2.64532,-1.18547 -2.6448,-2.64687 5.3e-4,-1.4609 1.18507,-2.6448 2.64583,-2.6448 2.7e-4,0 5.3e-4,0 0.001,0 h 2.78652 c 7.21771,-0.078 13.08751,-6.00427 13.08751,-13.21676 0,-7.29348 -5.93659,-13.22723 -13.23356,-13.22723 -0.31187,0 -0.64518,0.0204 -0.93017,0.0401 -0.70203,0.0493 -1.3954,-0.18437 -1.92534,-0.64802 -0.52994,-0.46369 -0.85331,-1.11946 -0.8984,-1.82211 -0.76532,-11.93184 -10.74159,-21.27843 -22.711786,-21.27843 -8.02703,0 -15.308109,4.10374 -19.476977,10.97738 -0.421939,0.6958 -1.140756,1.15869 -1.948847,1.25521 -0.807701,0.0952 -1.615535,-0.18436 -2.1894,-0.76144 -1.38144,-1.38907 -3.220863,-2.154 -5.179399,-2.154 -4.028178,0 -7.305368,3.27718 -7.305368,7.30549 0,1.14927 0.260837,2.25075 0.775277,3.27395 0.403981,0.80357 0.37207,1.75739 -0.08475,2.53227 -0.456819,0.77476 -1.276019,1.2644 -2.174804,1.29993 -7.107322,0.28059 -12.674811,6.07623 -12.674811,13.19416 0,7.2816 5.90093,13.20551 13.154236,13.20551 h 2.720764 c 1.46128,0 2.645833,1.18468 2.645833,2.64584 0,1.46116 -1.184553,2.64583 -2.645833,2.64583 h -2.720763 c -10.171086,0 -18.445903,-8.29768 -18.445903,-18.49718 0,-8.80438 6.0818,-16.1644 14.361268,-18.03612 -0.134487,-0.74051 -0.202184,-1.49629 -0.202184,-2.26419 0,-6.94611 5.650947,-12.59719 12.597035,-12.59719 2.307352,0 4.518459,0.61548 6.447669,1.7693 5.287015,-6.99156 13.444526,-11.08641 22.346957,-11.08641 13.913106,0 25.640686,10.24691 27.722596,23.75061 9.63132,0.64775 17.26833,8.68733 17.26833,18.47678 0,10.10611 -8.22754,18.40897 -18.34049,18.50819 -0.009,2.4e-4 -0.018,2.4e-4 -0.027,2.4e-4 z"
       id="path120" />
    <path
       inkscape:connector-curvature="0"
       style="fill:#010202;stroke-width:0.26458332"
       d="m 65.096283,107.53615 c -0.676574,0 -1.353018,-0.25786 -1.869525,-0.77361 -1.034044,-1.03248 -1.035208,-2.70785 -0.0027,-3.74187 L 74.59002,91.638659 h -6.847904 c -1.082622,0 -2.055947,-0.65939 -2.457344,-1.66502 -0.401267,-1.00536 -0.149603,-2.15387 0.635363,-2.8993 l 16.66875,-15.82979 c 1.059624,-1.00613 2.734199,-0.9635 3.74047,0.0966 1.006269,1.05937 0.96312,2.73418 -0.09651,3.74034 l -11.86245,11.26546 h 6.600888 c 1.069832,0 2.034371,0.64415 2.444036,1.63245 0.409794,0.98833 0.184097,2.12598 -0.571799,2.88303 l -15.875,15.897491 c -0.516763,0.51729 -1.194499,0.77618 -1.872237,0.77618 z"
       id="path122" />
    <path
       inkscape:connector-curvature="0"
       style="fill:#010202;stroke-width:0.26458332"
       d="m 92.063889,98.237239 c -0.677608,0 -1.355085,-0.25866 -1.87185,-0.77594 -1.032754,-1.03378 -1.031849,-2.70886 0.0019,-3.74163 l 11.352831,-11.34142 h -6.837048 c -1.081457,0 -2.054008,-0.6581 -2.45605,-1.6619 -0.402172,-1.00383 -0.152961,-2.15157 0.62942,-2.89804 l 16.668748,-15.90704 c 1.05717,-1.00872 2.73188,-0.96983 3.74073,0.0875 1.00885,1.05717 0.96971,2.73188 -0.0875,3.74073 l -11.89049,11.34711 h 6.62427 c 1.07035,0 2.03527,0.64492 2.44468,1.63401 0.40941,0.98883 0.18255,2.12725 -0.57477,2.88354 l -15.874997,15.85899 c -0.516509,0.51599 -1.193213,0.77412 -1.869914,0.77412 z"
       id="path124" />
    <path
       inkscape:connector-curvature="0"
       style="fill:#010202;stroke-width:0.26458332"
       d="m 78.570139,110.93724 c -0.677608,0 -1.355085,-0.25866 -1.87185,-0.77594 -1.032754,-1.03378 -1.031849,-2.70912 0.0019,-3.74163 l 6.625693,-6.618981 c 1.033788,-1.03275 2.709008,-1.03198 3.741761,0.003 1.032754,1.033781 1.031849,2.709121 -0.0019,3.741631 l -6.625693,6.61898 c -0.516506,0.51599 -1.193337,0.77411 -1.869911,0.77411 z"
       id="path126" />
    <path
       inkscape:connector-curvature="0"
       style="fill:#010202;stroke-width:0.26458332"
       d="m 54.493056,102.20599 c -0.677609,0 -1.355085,-0.25866 -1.871851,-0.77594 -1.032753,-1.03378 -1.031848,-2.708861 0.0019,-3.741631 l 4.178297,-4.17415 c 1.033788,-1.03251 2.709008,-1.03172 3.741761,0.003 1.032754,1.03378 1.031849,2.70888 -0.0019,3.74163 l -4.178297,4.174171 c -0.516507,0.51599 -1.19321,0.77412 -1.869911,0.77412 z"
       id="path128" />
    <path
       inkscape:connector-curvature="0"
       style="fill:#010202;stroke-width:0.26458332"
       d="m 101.85347,105.91016 c -0.67761,0 -1.35508,-0.25866 -1.871848,-0.77595 -1.032753,-1.03378 -1.031848,-2.70885 0.0019,-3.74163 L 113.73974,87.650279 c 1.03379,-1.03275 2.70901,-1.03198 3.74176,0.003 1.03276,1.03381 1.03185,2.70889 -0.002,3.74163 l -13.75622,13.742381 c -0.5165,0.51599 -1.19333,0.77411 -1.86991,0.77411 z"
       id="path130" />
  </g>
</svg>
