<?xml version="1.0" encoding="UTF-8" standalone="no"?>
<!-- Created with Inkscape (http://www.inkscape.org/) -->

<svg
   xmlns:dc="http://purl.org/dc/elements/1.1/"
   xmlns:cc="http://creativecommons.org/ns#"
   xmlns:rdf="http://www.w3.org/1999/02/22-rdf-syntax-ns#"
   xmlns:svg="http://www.w3.org/2000/svg"
   xmlns="http://www.w3.org/2000/svg"
   xmlns:sodipodi="http://sodipodi.sourceforge.net/DTD/sodipodi-0.dtd"
   xmlns:inkscape="http://www.inkscape.org/namespaces/inkscape"
   width="210mm"
   height="297mm"
   viewBox="0 0 210 297"
   version="1.1"
   id="svg4359"
   inkscape:version="0.92.4 (unknown)"
   sodipodi:docname="pluie.svg">
  <defs
     id="defs4353" />
  <sodipodi:namedview
     id="base"
     pagecolor="#ffffff"
     bordercolor="#666666"
     borderopacity="1.0"
     inkscape:pageopacity="0.0"
     inkscape:pageshadow="2"
     inkscape:zoom="0.35"
     inkscape:cx="400"
     inkscape:cy="560"
     inkscape:document-units="mm"
     inkscape:current-layer="layer1"
     showgrid="false"
     inkscape:window-width="1600"
     inkscape:window-height="871"
     inkscape:window-x="0"
     inkscape:window-y="0"
     inkscape:window-maximized="1" />
  <metadata
     id="metadata4356">
    <rdf:RDF>
      <cc:Work
         rdf:about="">
        <dc:format>image/svg+xml</dc:format>
        <dc:type
           rdf:resource="http://purl.org/dc/dcmitype/StillImage" />
        <dc:title></dc:title>
      </cc:Work>
    </rdf:RDF>
  </metadata>
  <g
     inkscape:label="Calque 1"
     inkscape:groupmode="layer"
     id="layer1">
    <path
       inkscape:connector-curvature="0"
       style="fill:#010202;stroke-width:0.26458332"
       d="m 131.68907,83.42281 h -2.80035 v 0 l -60.927938,-0.024 c -10.171086,0 -18.445903,-8.29768 -18.445903,-18.49718 0,-8.80438 6.0818,-16.1644 14.361268,-18.03611 -0.134487,-0.74052 -0.202184,-1.4963 -0.202184,-2.2642 0,-6.94611 5.650958,-12.59719 12.597038,-12.59719 2.307352,0 4.518448,0.61548 6.447658,1.7693 5.287036,-6.99156 13.444537,-11.08641 22.346981,-11.08641 13.91308,0 25.64066,10.24691 27.72259,23.75061 9.63133,0.64775 17.26832,8.68733 17.26832,18.47678 0,10.10611 -8.22754,18.40894 -18.34049,18.50816 -0.009,2.7e-4 -0.018,2.7e-4 -0.027,2.7e-4 z m -2.79829,-5.2927 h 2.78654 c 7.21776,-0.078 13.08756,-6.00427 13.08756,-13.21676 0,-7.29348 -5.93659,-13.22724 -13.23356,-13.22724 -0.31186,0 -0.64518,0.0204 -0.93016,0.0401 -0.70152,0.0493 -1.39528,-0.18436 -1.92535,-0.64801 -0.52993,-0.46369 -0.85331,-1.11946 -0.89839,-1.82211 -0.76534,-11.93184 -10.74158,-21.27843 -22.71178,-21.27843 -8.027044,0 -15.308112,4.10374 -19.476993,10.97738 -0.421931,0.6958 -1.140751,1.15869 -1.948842,1.25521 -0.808355,0.0952 -1.615545,-0.18436 -2.1894,-0.76144 -1.381443,-1.38907 -3.220879,-2.154 -5.179404,-2.154 -4.028176,0 -7.305358,3.27718 -7.305358,7.30549 0,1.14927 0.260827,2.25075 0.775256,3.27395 0.403992,0.80357 0.372084,1.75739 -0.08475,2.53227 -0.456803,0.77476 -1.276006,1.26439 -2.174796,1.29993 -7.107322,0.28162 -12.674811,6.07727 -12.674811,13.19519 0,7.2816 5.90093,13.20552 13.154236,13.20552 h 2.720764 z"
       id="path144" />
    <path
       inkscape:connector-curvature="0"
       style="fill:#010202;stroke-width:0.26458332"
       d="m 90.514183,111.69319 c -0.677598,0 -1.35509,-0.25866 -1.871848,-0.77594 -1.032748,-1.03378 -1.031848,-2.70912 0.0026,-3.74163 l 6.625701,-6.61898 c 1.03391,-1.03275 2.70914,-1.03198 3.74176,0.003 1.032754,1.03378 1.031854,2.70912 -0.003,3.74163 l -6.625697,6.61898 c -0.516519,0.51599 -1.19335,0.77412 -1.869916,0.77412 z"
       id="path146" />
    <path
       inkscape:connector-curvature="0"
       style="fill:#010202;stroke-width:0.26458332"
       d="m 67.495433,96.61194 c -0.677598,0 -1.355082,-0.25866 -1.871848,-0.77594 -1.032753,-1.03378 -1.031848,-2.70886 0.0019,-3.74163 l 4.178294,-4.17415 c 1.03378,-1.03277 2.709016,-1.03198 3.741764,0.003 1.032748,1.03378 1.031849,2.70888 -0.0026,3.74163 l -4.1783,4.17417 c -0.516519,0.51599 -1.193218,0.77412 -1.869916,0.77412 z"
       id="path148" />
    <path
       inkscape:connector-curvature="0"
       style="fill:#010202;stroke-width:0.26458332"
       d="m 104.27252,96.61194 c -0.6776,0 -1.35509,-0.25866 -1.87185,-0.77594 -1.03274,-1.03378 -1.03185,-2.70886 0.003,-3.74163 l 4.1783,-4.17415 c 1.03378,-1.03277 2.70902,-1.03198 3.74177,0.003 1.03275,1.03378 1.03185,2.70888 -0.003,3.74163 l -4.1783,4.17417 c -0.51652,0.51599 -1.19322,0.77412 -1.86992,0.77412 z"
       id="path150" />
    <path
       inkscape:connector-curvature="0"
       style="fill:#010202;stroke-width:0.26458332"
       d="m 116.17877,103.26965 c -0.67773,0 -1.35533,-0.25863 -1.87211,-0.77615 -1.03262,-1.03381 -1.03145,-2.70915 0.003,-3.74163 l 10.84585,-10.83191 c 1.03391,-1.03275 2.70915,-1.03172 3.74177,0.003 1.03261,1.03378 1.03145,2.70914 -0.003,3.74163 l -10.84586,10.83193 c -0.51649,0.51599 -1.19308,0.77385 -1.86965,0.77385 z"
       id="path152" />
    <path
       inkscape:connector-curvature="0"
       style="fill:#010202;stroke-width:0.26458332"
       d="m 76.226683,106.18007 c -0.677598,0 -1.35509,-0.25863 -1.871848,-0.77592 -1.032748,-1.03378 -1.031848,-2.70888 0.0026,-3.74163 l 13.75627,-13.7423 c 1.03378,-1.03275 2.709016,-1.03198 3.741764,0.003 1.032747,1.03378 1.031847,2.70888 -0.0026,3.74163 l -13.75627,13.74237 c -0.516519,0.51599 -1.19335,0.7741 -1.869916,0.7741 z"
       id="path154" />
  </g>
</svg>
