<?xml version="1.0" encoding="UTF-8"?>
<!DOCTYPE svg PUBLIC "-//W3C//DTD SVG 1.1//EN" "http://www.w3.org/Graphics/SVG/1.1/DTD/svg11.dtd">
<svg version="1.2" width="116.99mm" height="103.99mm" viewBox="3931 1531 11699 10399" preserveAspectRatio="xMidYMid" fill-rule="evenodd" stroke-width="28.222" stroke-linejoin="round" xmlns="http://www.w3.org/2000/svg" xmlns:ooo="http://xml.openoffice.org/svg/export" xmlns:xlink="http://www.w3.org/1999/xlink" xmlns:presentation="http://sun.com/xmlns/staroffice/presentation" xmlns:smil="http://www.w3.org/2001/SMIL20/" xmlns:anim="urn:oasis:names:tc:opendocument:xmlns:animation:1.0" xml:space="preserve">
 <defs class="ClipPathGroup">
  <clipPath id="presentation_clip_path" clipPathUnits="userSpaceOnUse">
   <rect x="3931" y="1531" width="11699" height="10399"/>
  </clipPath>
  <clipPath id="presentation_clip_path_shrink" clipPathUnits="userSpaceOnUse">
   <rect x="3942" y="1541" width="11676" height="10379"/>
  </clipPath>
 </defs>
 <defs class="TextShapeIndex">
  <g ooo:slide="id1" ooo:id-list="id3"/>
 </defs>
 <defs class="EmbeddedBulletChars">
  <g id="bullet-char-template-57356" transform="scale(0.00048828125,-0.00048828125)">
   <path d="M 580,1141 L 1163,571 580,0 -4,571 580,1141 Z"/>
  </g>
  <g id="bullet-char-template-57354" transform="scale(0.00048828125,-0.00048828125)">
   <path d="M 8,1128 L 1137,1128 1137,0 8,0 8,1128 Z"/>
  </g>
  <g id="bullet-char-template-10146" transform="scale(0.00048828125,-0.00048828125)">
   <path d="M 174,0 L 602,739 174,1481 1456,739 174,0 Z M 1358,739 L 309,1346 659,739 1358,739 Z"/>
  </g>
  <g id="bullet-char-template-10132" transform="scale(0.00048828125,-0.00048828125)">
   <path d="M 2015,739 L 1276,0 717,0 1260,543 174,543 174,936 1260,936 717,1481 1274,1481 2015,739 Z"/>
  </g>
  <g id="bullet-char-template-10007" transform="scale(0.00048828125,-0.00048828125)">
   <path d="M 0,-2 C -7,14 -16,27 -25,37 L 356,567 C 262,823 215,952 215,954 215,979 228,992 255,992 264,992 276,990 289,987 310,991 331,999 354,1012 L 381,999 492,748 772,1049 836,1024 860,1049 C 881,1039 901,1025 922,1006 886,937 835,863 770,784 769,783 710,716 594,584 L 774,223 C 774,196 753,168 711,139 L 727,119 C 717,90 699,76 672,76 641,76 570,178 457,381 L 164,-76 C 142,-110 111,-127 72,-127 30,-127 9,-110 8,-76 1,-67 -2,-52 -2,-32 -2,-23 -1,-13 0,-2 Z"/>
  </g>
  <g id="bullet-char-template-10004" transform="scale(0.00048828125,-0.00048828125)">
   <path d="M 285,-33 C 182,-33 111,30 74,156 52,228 41,333 41,471 41,549 55,616 82,672 116,743 169,778 240,778 293,778 328,747 346,684 L 369,508 C 377,444 397,411 428,410 L 1163,1116 C 1174,1127 1196,1133 1229,1133 1271,1133 1292,1118 1292,1087 L 1292,965 C 1292,929 1282,901 1262,881 L 442,47 C 390,-6 338,-33 285,-33 Z"/>
  </g>
  <g id="bullet-char-template-9679" transform="scale(0.00048828125,-0.00048828125)">
   <path d="M 813,0 C 632,0 489,54 383,161 276,268 223,411 223,592 223,773 276,916 383,1023 489,1130 632,1184 813,1184 992,1184 1136,1130 1245,1023 1353,916 1407,772 1407,592 1407,412 1353,268 1245,161 1136,54 992,0 813,0 Z"/>
  </g>
  <g id="bullet-char-template-8226" transform="scale(0.00048828125,-0.00048828125)">
   <path d="M 346,457 C 273,457 209,483 155,535 101,586 74,649 74,723 74,796 101,859 155,911 209,963 273,989 346,989 419,989 480,963 531,910 582,859 608,796 608,723 608,648 583,586 532,535 482,483 420,457 346,457 Z"/>
  </g>
  <g id="bullet-char-template-8211" transform="scale(0.00048828125,-0.00048828125)">
   <path d="M -4,459 L 1135,459 1135,606 -4,606 -4,459 Z"/>
  </g>
  <g id="bullet-char-template-61548" transform="scale(0.00048828125,-0.00048828125)">
   <path d="M 173,740 C 173,903 231,1043 346,1159 462,1274 601,1332 765,1332 928,1332 1067,1274 1183,1159 1299,1043 1357,903 1357,740 1357,577 1299,437 1183,322 1067,206 928,148 765,148 601,148 462,206 346,322 231,437 173,577 173,740 Z"/>
  </g>
 </defs>
 <defs class="TextEmbeddedBitmaps"/>
 <g class="SlideGroup">
  <g>
   <g id="container-id1">
    <g id="id1" class="Slide" clip-path="url(#presentation_clip_path)">
     <g class="Page">
      <g class="Graphic">
       <g id="id3">
        <rect class="BoundingBox" stroke="none" fill="none" x="3931" y="1531" width="11700" height="10400"/>
        <defs>
         <clipPath id="clip_path_1" clipPathUnits="userSpaceOnUse">
          <path d="M 3931,1531 L 15630,1531 15630,11930 3931,11930 3931,1531 Z"/>
         </clipPath>
        </defs>
        <g clip-path="url(#clip_path_1)">
         <path fill="rgb(1,2,2)" stroke="none" d="M 13181,8354 L 12901,8354 12901,8354 6810,8352 C 5793,8352 4965,7522 4965,6502 4965,5622 5573,4886 6401,4699 6388,4625 6381,4550 6381,4473 6381,3778 6946,3213 7641,3213 7871,3213 8092,3275 8285,3390 8814,2691 9629,2282 10519,2282 11910,2282 13083,3306 13291,4656 14254,4721 15018,5525 15018,6504 15018,7514 14195,8344 13184,8354 13183,8354 13182,8354 13181,8354 L 13181,8354 Z M 12901,7825 L 13180,7825 C 13902,7817 14489,7225 14489,6504 14489,5774 13895,5181 13165,5181 13134,5181 13101,5183 13072,5185 13002,5190 12933,5167 12880,5120 12827,5074 12795,5008 12790,4938 12714,3745 11716,2811 10519,2811 9717,2811 8989,3221 8572,3908 8530,3978 8458,4024 8377,4034 8296,4043 8216,4015 8158,3958 8020,3819 7836,3742 7641,3742 7238,3742 6910,4070 6910,4473 6910,4588 6936,4698 6988,4800 7028,4880 7025,4976 6979,5053 6933,5131 6852,5180 6762,5183 6051,5211 5494,5791 5494,6502 5494,7230 6084,7823 6810,7823 L 7082,7823 12901,7825 Z"/>
         <path fill="rgb(1,2,2)" stroke="none" d="M 9065,11181 C 8997,11181 8929,11155 8877,11103 8774,11000 8774,10832 8878,10729 L 9540,10067 C 9643,9964 9811,9964 9914,10067 10017,10171 10017,10338 9914,10441 L 9251,11103 C 9200,11155 9132,11181 9065,11181 L 9065,11181 Z"/>
         <path fill="rgb(1,2,2)" stroke="none" d="M 6763,9673 C 6695,9673 6628,9647 6576,9595 6473,9492 6473,9324 6576,9221 L 6994,8804 C 7097,8700 7265,8701 7368,8804 7471,8907 7471,9075 7368,9178 L 6950,9595 C 6898,9647 6831,9673 6763,9673 L 6763,9673 Z"/>
         <path fill="rgb(1,2,2)" stroke="none" d="M 10440,9673 C 10372,9673 10305,9647 10253,9595 10150,9492 10150,9324 10253,9221 L 10671,8804 C 10774,8700 10942,8701 11045,8804 11148,8907 11148,9075 11045,9178 L 10627,9595 C 10575,9647 10508,9673 10440,9673 L 10440,9673 Z"/>
         <path fill="rgb(1,2,2)" stroke="none" d="M 11631,10338 C 11563,10338 11495,10312 11443,10261 11340,10157 11340,9990 11444,9887 L 12528,8804 C 12631,8700 12799,8701 12902,8804 13005,8907 13005,9075 12902,9178 L 11817,10261 C 11766,10313 11698,10338 11631,10338 L 11631,10338 Z"/>
         <path fill="rgb(1,2,2)" stroke="none" d="M 7636,10629 C 7568,10629 7501,10603 7449,10552 7346,10448 7346,10281 7449,10178 L 8825,8804 C 8928,8700 9095,8701 9199,8804 9302,8907 9302,9075 9198,9178 L 7823,10552 C 7771,10604 7704,10629 7636,10629 L 7636,10629 Z"/>
        </g>
       </g>
      </g>
     </g>
    </g>
   </g>
  </g>
 </g>
</svg>