<?xml version="1.0" encoding="UTF-8" standalone="no"?>
<!-- Created with Inkscape (http://www.inkscape.org/) -->

<svg
   xmlns:dc="http://purl.org/dc/elements/1.1/"
   xmlns:cc="http://creativecommons.org/ns#"
   xmlns:rdf="http://www.w3.org/1999/02/22-rdf-syntax-ns#"
   xmlns:svg="http://www.w3.org/2000/svg"
   xmlns="http://www.w3.org/2000/svg"
   xmlns:sodipodi="http://sodipodi.sourceforge.net/DTD/sodipodi-0.dtd"
   xmlns:inkscape="http://www.inkscape.org/namespaces/inkscape"
   width="210mm"
   height="297mm"
   viewBox="0 0 210 297"
   version="1.1"
   id="svg4528"
   inkscape:version="0.92.4 (unknown)"
   sodipodi:docname="pluie_lune.svg">
  <defs
     id="defs4522" />
  <sodipodi:namedview
     id="base"
     pagecolor="#ffffff"
     bordercolor="#666666"
     borderopacity="1.0"
     inkscape:pageopacity="0.0"
     inkscape:pageshadow="2"
     inkscape:zoom="0.35"
     inkscape:cx="400"
     inkscape:cy="560"
     inkscape:document-units="mm"
     inkscape:current-layer="layer1"
     showgrid="false"
     inkscape:window-width="1600"
     inkscape:window-height="871"
     inkscape:window-x="0"
     inkscape:window-y="0"
     inkscape:window-maximized="1" />
  <metadata
     id="metadata4525">
    <rdf:RDF>
      <cc:Work
         rdf:about="">
        <dc:format>image/svg+xml</dc:format>
        <dc:type
           rdf:resource="http://purl.org/dc/dcmitype/StillImage" />
        <dc:title></dc:title>
      </cc:Work>
    </rdf:RDF>
  </metadata>
  <g
     inkscape:label="Calque 1"
     inkscape:groupmode="layer"
     id="layer1">
    <path
       inkscape:connector-curvature="0"
       style="fill:#010202;stroke-width:0.26458332"
       d="m 60.467157,115.91762 c -9.485736,-0.0625 -17.188894,-7.80521 -17.188894,-17.259672 0,-8.14652 5.572548,-14.96756 13.188103,-16.78438 -0.103347,-0.63084 -0.155284,-1.27291 -0.155284,-1.92442 0,-6.50954 5.295794,-11.80536 11.805205,-11.80536 2.098067,0 4.111387,0.54314 5.880788,1.56321 4.908736,-6.39662 12.425601,-10.13801 20.623557,-10.13801 12.854488,0 23.698808,9.42721 25.699718,21.87826 8.89455,0.68601 15.92255,8.14306 15.92255,17.2107 0,9.423452 -7.66646,17.165372 -17.08968,17.258402 z m 7.64913,-42.482162 c -3.591507,0 -6.513539,2.92205 -6.513539,6.51369 0,1.02447 0.232543,2.0066 0.691171,2.91907 0.404099,0.80357 0.372058,1.75739 -0.08477,2.53214 -0.456803,0.77489 -1.276138,1.26439 -2.174796,1.29993 -6.428554,0.25387 -11.464422,5.50637 -11.464422,11.95766 0,6.555952 5.344901,11.924612 11.914796,11.968002 h 58.642413 c 6.50811,-0.0641 11.82407,-5.4325 11.82407,-11.966732 0,-6.60062 -5.36996,-11.97044 -11.97034,-11.97044 -0.24545,0 -0.51286,0.0106 -0.84153,0.0334 -0.70514,0.0491 -1.39552,-0.1846 -1.92521,-0.64815 -0.52994,-0.46353 -0.85318,-1.11932 -0.8984,-1.82198 -0.69762,-10.87299 -9.78802,-19.39017 -20.695123,-19.39017 -7.314538,0 -13.949256,3.73906 -17.748012,10.00212 -0.421931,0.6958 -1.140751,1.15869 -1.948709,1.25508 -0.807693,0.0957 -1.615413,-0.18436 -2.189533,-0.76144 -1.231714,-1.23881 -2.871919,-1.92096 -4.618064,-1.92096 z"
       id="path64" />
    <path
       inkscape:connector-curvature="0"
       style="fill:#010202;stroke-width:0.26458332"
       d="m 135.12694,85.032568 c -1.12887,0 -2.17429,-0.72787 -2.52622,-1.8627 -0.43304,-1.39565 0.34753,-2.87798 1.74305,-3.31089 3.65636,-1.13405 7.00707,-3.15317 9.74153,-5.83041 -5.48184,-1.37898 -10.473,-4.32091 -14.38335,-8.53913 -5.05809,-5.45614 -7.84371,-12.56086 -7.84371,-20.00523 0,-4.44923 0.98494,-8.76758 2.87708,-12.70918 -5.22552,0.52761 -10.12833,2.73756 -14.00924,6.35466 -4.45965,4.15657 -7.16544,9.78066 -7.61838,15.83623 -0.10877,1.45714 -1.38208,2.55231 -2.83575,2.44108 -1.45701,-0.10906 -2.54998,-1.37861 -2.44094,-2.83589 0.55242,-7.3869 3.85066,-14.24551 9.28703,-19.31252 5.46478,-5.093225 12.5907,-7.898231 20.06494,-7.898231 0.78753,0 1.59293,0.0327 2.3939,0.09729 0.9462,0.07636 1.77922,0.653838 2.18255,1.513231 0.40333,0.859499 0.31522,1.869123 -0.23072,2.645834 -2.8647,4.074429 -4.3788,8.869729 -4.3788,13.867499 0,6.10595 2.2846,11.93311 6.43268,16.40777 4.1261,4.4509 9.71672,7.16946 15.74167,7.65511 0.94618,0.0763 1.77922,0.65381 2.18255,1.5132 0.40333,0.8595 0.31523,1.86926 -0.23074,2.64583 -3.73491,5.3122 -9.19144,9.29233 -15.36443,11.20707 -0.26096,0.0809 -0.5253,0.11938 -0.7847,0.11938 z"
       id="path66" />
    <path
       inkscape:connector-curvature="0"
       style="fill:#010202;stroke-width:0.26458332"
       d="m 84.331833,143.30511 c -0.677731,0 -1.355196,-0.25865 -1.871716,-0.77594 -1.032748,-1.03378 -1.031981,-2.70912 0.0026,-3.74163 l 6.098593,-6.09238 c 1.033806,-1.03277 2.709413,-1.03198 3.741632,0.003 1.032774,1.03378 1.03198,2.70915 -0.0026,3.74163 l -6.098593,6.0924 c -0.516493,0.51599 -1.193218,0.77412 -1.869916,0.77412 z"
       id="path68" />
    <path
       inkscape:connector-curvature="0"
       style="fill:#010202;stroke-width:0.26458332"
       d="m 63.143999,129.42351 c -0.677756,0 -1.355222,-0.25863 -1.87198,-0.77592 -1.03251,-1.03378 -1.031742,-2.70914 0.0026,-3.74189 l 3.84601,-3.84188 c 1.03378,-1.03275 2.709122,-1.03172 3.741896,0.003 1.032484,1.0338 1.031716,2.70914 -0.0026,3.74189 l -3.846036,3.84188 c -0.516493,0.51599 -1.193191,0.77385 -1.86989,0.77385 z"
       id="path70" />
    <path
       inkscape:connector-curvature="0"
       style="fill:#010202;stroke-width:0.26458332"
       d="m 96.99566,129.42351 c -0.677726,0 -1.354954,-0.25863 -1.871711,-0.77592 -1.032748,-1.03378 -1.031981,-2.70888 0.0026,-3.74163 l 3.845771,-3.84188 c 1.03378,-1.03275 2.70889,-1.03198 3.74163,0.003 1.03275,1.03381 1.03198,2.70888 -0.003,3.74163 l -3.84574,3.84191 c -0.51652,0.51599 -1.19322,0.77409 -1.86992,0.77409 z"
       id="path72" />
    <path
       inkscape:connector-curvature="0"
       style="fill:#010202;stroke-width:0.26458332"
       d="m 107.95468,135.55182 c -0.67773,0 -1.35546,-0.25863 -1.87198,-0.77619 -1.03275,-1.03378 -1.03172,-2.70912 0.003,-3.7416 l 9.98313,-9.97021 c 1.03404,-1.03302 2.70965,-1.03172 3.74163,0.003 1.03275,1.0338 1.03171,2.70914 -0.003,3.74163 l -9.98313,9.97018 c -0.51649,0.51599 -1.19319,0.77385 -1.86965,0.77385 z"
       id="path74" />
    <path
       inkscape:connector-curvature="0"
       style="fill:#010202;stroke-width:0.26458332"
       d="m 71.180718,138.23072 c -0.677757,0 -1.355222,-0.25863 -1.871742,-0.77592 -1.032748,-1.03378 -1.031981,-2.70912 0.0026,-3.74163 l 12.662052,-12.64909 c 1.033806,-1.03275 2.709413,-1.03198 3.741632,0.003 1.032748,1.03381 1.03198,2.70915 -0.0026,3.74163 l -12.662079,12.64917 c -0.516493,0.51599 -1.193191,0.77409 -1.869889,0.77409 z"
       id="path76" />
  </g>
</svg>
