<?xml version="1.0" encoding="iso-8859-1"?>
<!-- Generator: Adobe Illustrator 19.0.0, SVG Export Plug-In . SVG Version: 6.00 Build 0)  -->
<svg version="1.1" id="Capa_1" xmlns="http://www.w3.org/2000/svg" xmlns:xlink="http://www.w3.org/1999/xlink" x="0px" y="0px"
	 viewBox="0 0 353.321 353.321" style="enable-background:new 0 0 353.321 353.321;" xml:space="preserve">
<g>
	<g id="Dibujo_37_">
		<g>
			<path d="M293.917,135.187c16.192-14.364,26.278-35.298,26.278-57.9c0-6.095-4.946-11.041-11.041-11.041
				c-30.44,0-55.205-24.765-55.205-55.205C253.948,4.946,249.002,0,242.907,0c-39.074,0-71.386,29.171-76.498,66.859
				c-37.805,4.069-69.189,30.297-79.794,66.644c-3.185-0.574-6.525-1.01-9.324-1.01c-33.482,0-60.726,27.244-60.726,60.726
				s27.244,60.726,60.726,60.726c6.095,0,11.041-4.946,11.041-11.041c0-6.095-4.946-11.041-11.041-11.041
				c-21.304,0-38.644-17.34-38.644-38.644s17.34-38.644,38.644-38.644c1.529,0,3.991,0.375,6.586,0.894v10.147
				c0,6.095,4.941,11.041,11.041,11.041c6.1,0,11.041-4.946,11.041-11.041v-17.771c5.924-34.52,35.53-59.517,70.702-59.517
				c35.166,0,64.773,24.997,70.702,59.523v17.765c0,6.095,4.946,11.041,11.041,11.041s11.041-4.946,11.041-11.041V155.47
				c2.595-0.519,5.057-0.894,6.586-0.894c21.304,0,38.644,17.34,38.644,38.644s-17.34,38.644-38.644,38.644
				c-6.1,0-11.041,4.946-11.041,11.041c0,6.095,4.941,11.041,11.041,11.041c33.482,0,60.726-27.244,60.726-60.726
				C336.756,165.959,318.693,142.844,293.917,135.187z M188.662,67.075c4.19-22.297,21.817-39.914,44.131-44.065
				c5.156,33.04,31.329,59.224,64.37,64.392c-3.395,17.92-15.678,33.156-32.361,40.444C252.905,95.009,223.69,71.502,188.662,67.075
				z"/>
			<path d="M184.858,199.071c-5.89-1.48-11.908,2.12-13.393,8.032l-33.123,132.493c-1.48,5.918,2.12,11.913,8.032,13.393
				c0.9,0.226,1.8,0.331,2.689,0.331c4.941,0,9.446-3.345,10.699-8.364l33.123-132.493
				C194.37,206.54,190.776,200.545,184.858,199.071z"/>
			<path d="M229.023,232.194c-5.901-1.474-11.908,2.12-13.393,8.032l-16.562,66.247c-1.48,5.918,2.12,11.913,8.032,13.393
				c0.9,0.226,1.8,0.331,2.689,0.331c4.941,0,9.446-3.345,10.699-8.364l16.562-66.247
				C238.535,239.664,234.941,233.668,229.023,232.194z"/>
			<path d="M124.132,232.194c-5.901-1.474-11.908,2.12-13.393,8.032l-16.562,66.247c-1.48,5.918,2.12,11.913,8.032,13.393
				c0.9,0.226,1.8,0.331,2.688,0.331c4.941,0,9.446-3.345,10.699-8.364l16.562-66.247
				C133.644,239.664,130.05,233.668,124.132,232.194z"/>
		</g>
	</g>
</g>
<g>
</g>
<g>
</g>
<g>
</g>
<g>
</g>
<g>
</g>
<g>
</g>
<g>
</g>
<g>
</g>
<g>
</g>
<g>
</g>
<g>
</g>
<g>
</g>
<g>
</g>
<g>
</g>
<g>
</g>
</svg>
