<?xml version="1.0" encoding="UTF-8"?>
<!DOCTYPE svg PUBLIC "-//W3C//DTD SVG 1.1//EN" "http://www.w3.org/Graphics/SVG/1.1/DTD/svg11.dtd">
<svg version="1.2" width="149.99mm" height="130.99mm" viewBox="2431 6631 14999 13099" preserveAspectRatio="xMidYMid" fill-rule="evenodd" stroke-width="28.222" stroke-linejoin="round" xmlns="http://www.w3.org/2000/svg" xmlns:ooo="http://xml.openoffice.org/svg/export" xmlns:xlink="http://www.w3.org/1999/xlink" xmlns:presentation="http://sun.com/xmlns/staroffice/presentation" xmlns:smil="http://www.w3.org/2001/SMIL20/" xmlns:anim="urn:oasis:names:tc:opendocument:xmlns:animation:1.0" xml:space="preserve">
 <defs class="ClipPathGroup">
  <clipPath id="presentation_clip_path" clipPathUnits="userSpaceOnUse">
   <rect x="2431" y="6631" width="14999" height="13099"/>
  </clipPath>
  <clipPath id="presentation_clip_path_shrink" clipPathUnits="userSpaceOnUse">
   <rect x="2445" y="6644" width="14970" height="13073"/>
  </clipPath>
 </defs>
 <defs class="TextShapeIndex">
  <g ooo:slide="id1" ooo:id-list="id3"/>
 </defs>
 <defs class="EmbeddedBulletChars">
  <g id="bullet-char-template-57356" transform="scale(0.00048828125,-0.00048828125)">
   <path d="M 580,1141 L 1163,571 580,0 -4,571 580,1141 Z"/>
  </g>
  <g id="bullet-char-template-57354" transform="scale(0.00048828125,-0.00048828125)">
   <path d="M 8,1128 L 1137,1128 1137,0 8,0 8,1128 Z"/>
  </g>
  <g id="bullet-char-template-10146" transform="scale(0.00048828125,-0.00048828125)">
   <path d="M 174,0 L 602,739 174,1481 1456,739 174,0 Z M 1358,739 L 309,1346 659,739 1358,739 Z"/>
  </g>
  <g id="bullet-char-template-10132" transform="scale(0.00048828125,-0.00048828125)">
   <path d="M 2015,739 L 1276,0 717,0 1260,543 174,543 174,936 1260,936 717,1481 1274,1481 2015,739 Z"/>
  </g>
  <g id="bullet-char-template-10007" transform="scale(0.00048828125,-0.00048828125)">
   <path d="M 0,-2 C -7,14 -16,27 -25,37 L 356,567 C 262,823 215,952 215,954 215,979 228,992 255,992 264,992 276,990 289,987 310,991 331,999 354,1012 L 381,999 492,748 772,1049 836,1024 860,1049 C 881,1039 901,1025 922,1006 886,937 835,863 770,784 769,783 710,716 594,584 L 774,223 C 774,196 753,168 711,139 L 727,119 C 717,90 699,76 672,76 641,76 570,178 457,381 L 164,-76 C 142,-110 111,-127 72,-127 30,-127 9,-110 8,-76 1,-67 -2,-52 -2,-32 -2,-23 -1,-13 0,-2 Z"/>
  </g>
  <g id="bullet-char-template-10004" transform="scale(0.00048828125,-0.00048828125)">
   <path d="M 285,-33 C 182,-33 111,30 74,156 52,228 41,333 41,471 41,549 55,616 82,672 116,743 169,778 240,778 293,778 328,747 346,684 L 369,508 C 377,444 397,411 428,410 L 1163,1116 C 1174,1127 1196,1133 1229,1133 1271,1133 1292,1118 1292,1087 L 1292,965 C 1292,929 1282,901 1262,881 L 442,47 C 390,-6 338,-33 285,-33 Z"/>
  </g>
  <g id="bullet-char-template-9679" transform="scale(0.00048828125,-0.00048828125)">
   <path d="M 813,0 C 632,0 489,54 383,161 276,268 223,411 223,592 223,773 276,916 383,1023 489,1130 632,1184 813,1184 992,1184 1136,1130 1245,1023 1353,916 1407,772 1407,592 1407,412 1353,268 1245,161 1136,54 992,0 813,0 Z"/>
  </g>
  <g id="bullet-char-template-8226" transform="scale(0.00048828125,-0.00048828125)">
   <path d="M 346,457 C 273,457 209,483 155,535 101,586 74,649 74,723 74,796 101,859 155,911 209,963 273,989 346,989 419,989 480,963 531,910 582,859 608,796 608,723 608,648 583,586 532,535 482,483 420,457 346,457 Z"/>
  </g>
  <g id="bullet-char-template-8211" transform="scale(0.00048828125,-0.00048828125)">
   <path d="M -4,459 L 1135,459 1135,606 -4,606 -4,459 Z"/>
  </g>
  <g id="bullet-char-template-61548" transform="scale(0.00048828125,-0.00048828125)">
   <path d="M 173,740 C 173,903 231,1043 346,1159 462,1274 601,1332 765,1332 928,1332 1067,1274 1183,1159 1299,1043 1357,903 1357,740 1357,577 1299,437 1183,322 1067,206 928,148 765,148 601,148 462,206 346,322 231,437 173,577 173,740 Z"/>
  </g>
 </defs>
 <defs class="TextEmbeddedBitmaps"/>
 <g class="SlideGroup">
  <g>
   <g id="container-id1">
    <g id="id1" class="Slide" clip-path="url(#presentation_clip_path)">
     <g class="Page">
      <g class="Graphic">
       <g id="id3">
        <rect class="BoundingBox" stroke="none" fill="none" x="2431" y="6631" width="15000" height="13100"/>
        <defs>
         <clipPath id="clip_path_1" clipPathUnits="userSpaceOnUse">
          <path d="M 2431,6631 L 17430,6631 17430,19730 2431,19730 2431,6631 Z"/>
         </clipPath>
        </defs>
        <g clip-path="url(#clip_path_1)">
         <path fill="rgb(1,2,2)" stroke="none" d="M 12343,14495 C 12251,14382 12269,14215 12382,14123 12880,13719 13165,13119 13165,12479 13165,11312 12216,10363 11049,10363 9970,10363 9065,11170 8946,12241 8930,12386 8799,12491 8654,12475 8508,12459 8404,12328 8420,12183 8570,10843 9700,9834 11049,9834 12508,9834 13694,11020 13694,12479 13694,13280 13338,14028 12716,14534 12667,14573 12608,14593 12549,14593 12472,14593 12396,14559 12343,14495 Z"/>
         <path fill="rgb(1,2,2)" stroke="none" d="M 11046,9408 C 10900,9408 10782,9289 10782,9143 L 10782,7715 C 10782,7569 10900,7450 11046,7450 11193,7450 11311,7569 11311,7715 L 11311,9143 C 11311,9289 11193,9408 11046,9408 L 11046,9408 Z"/>
         <path fill="rgb(1,2,2)" stroke="none" d="M 7713,12741 L 6285,12741 C 6139,12741 6020,12623 6020,12476 6020,12330 6139,12212 6285,12212 L 7713,12212 C 7859,12212 7978,12330 7978,12476 7978,12623 7859,12741 7713,12741 L 7713,12741 Z"/>
         <path fill="rgb(1,2,2)" stroke="none" d="M 15808,12741 L 14380,12741 C 14234,12741 14115,12623 14115,12476 14115,12330 14234,12212 14380,12212 L 15808,12212 C 15954,12212 16073,12330 16073,12476 16073,12623 15954,12741 15808,12741 L 15808,12741 Z"/>
         <path fill="rgb(1,2,2)" stroke="none" d="M 13202,10321 C 13098,10218 13098,10050 13202,9947 L 14226,8922 C 14330,8819 14497,8819 14601,8922 14704,9026 14704,9193 14601,9296 L 13576,10321 C 13524,10373 13456,10399 13389,10399 13321,10399 13253,10373 13202,10321 Z"/>
         <path fill="rgb(1,2,2)" stroke="none" d="M 8704,10399 C 8636,10399 8569,10373 8517,10321 L 7492,9296 C 7389,9193 7389,9026 7492,8922 7596,8819 7763,8819 7866,8922 L 8891,9947 C 8994,10050 8994,10218 8891,10321 8840,10373 8772,10399 8704,10399 L 8704,10399 Z"/>
         <path fill="rgb(1,2,2)" stroke="none" d="M 14226,16031 L 13202,15006 C 13098,14902 13098,14735 13202,14632 13305,14528 13472,14528 13576,14632 L 14601,15656 C 14704,15760 14704,15927 14601,16031 14549,16082 14481,16108 14414,16108 14346,16108 14278,16082 14226,16031 Z"/>
         <path fill="rgb(1,2,2)" stroke="none" d="M 5755,18561 C 4737,18554 3910,17723 3910,16709 3910,15827 4519,15090 5346,14903 5333,14829 5326,14753 5326,14677 5326,13982 5891,13417 6586,13417 6816,13417 7037,13479 7230,13594 7759,12895 8574,12486 9465,12486 10856,12486 12028,13511 12237,14861 13199,14926 13963,15730 13963,16709 13963,17720 13140,18551 12129,18561 L 5755,18561 Z M 6586,13946 C 6183,13946 5855,14274 5855,14677 5855,14792 5881,14902 5933,15004 5973,15084 5970,15180 5924,15257 5879,15335 5797,15384 5707,15387 4996,15415 4439,15996 4439,16709 4439,17434 5030,18027 5756,18032 L 12127,18032 C 12846,18025 13434,17431 13434,16709 13434,15979 12840,15386 12111,15386 12084,15386 12054,15387 12018,15390 11948,15394 11878,15371 11825,15325 11772,15278 11740,15213 11735,15143 11659,13950 10661,13015 9465,13015 8662,13015 7934,13425 7517,14112 7475,14182 7403,14228 7322,14238 7242,14247 7161,14219 7103,14162 6965,14023 6781,13946 6586,13946 L 6586,13946 Z"/>
        </g>
       </g>
      </g>
     </g>
    </g>
   </g>
  </g>
 </g>
</svg>