<?xml version="1.0" encoding="UTF-8" standalone="no"?>
<!-- Created with Inkscape (http://www.inkscape.org/) -->

<svg
   xmlns:dc="http://purl.org/dc/elements/1.1/"
   xmlns:cc="http://creativecommons.org/ns#"
   xmlns:rdf="http://www.w3.org/1999/02/22-rdf-syntax-ns#"
   xmlns:svg="http://www.w3.org/2000/svg"
   xmlns="http://www.w3.org/2000/svg"
   xmlns:sodipodi="http://sodipodi.sourceforge.net/DTD/sodipodi-0.dtd"
   xmlns:inkscape="http://www.inkscape.org/namespaces/inkscape"
   width="210mm"
   height="297mm"
   viewBox="0 0 210 297"
   version="1.1"
   id="svg368"
   inkscape:version="0.92.4 (unknown)"
   sodipodi:docname="nuage_soleil.svg">
  <defs
     id="defs362" />
  <sodipodi:namedview
     id="base"
     pagecolor="#ffffff"
     bordercolor="#666666"
     borderopacity="1.0"
     inkscape:pageopacity="0.0"
     inkscape:pageshadow="2"
     inkscape:zoom="0.35"
     inkscape:cx="400"
     inkscape:cy="560"
     inkscape:document-units="mm"
     inkscape:current-layer="layer1"
     showgrid="false"
     inkscape:window-width="580"
     inkscape:window-height="433"
     inkscape:window-x="992"
     inkscape:window-y="0"
     inkscape:window-maximized="0" />
  <metadata
     id="metadata365">
    <rdf:RDF>
      <cc:Work
         rdf:about="">
        <dc:format>image/svg+xml</dc:format>
        <dc:type
           rdf:resource="http://purl.org/dc/dcmitype/StillImage" />
        <dc:title></dc:title>
      </cc:Work>
    </rdf:RDF>
  </metadata>
  <g
     inkscape:label="Calque 1"
     inkscape:groupmode="layer"
     id="layer1">
    <path
       inkscape:connector-curvature="0"
       style="fill:#010202;stroke-width:0.26458332"
       d="m 125.36375,145.80966 c -0.76949,0 -1.53246,-0.33409 -2.05544,-0.97811 -0.92112,-1.1343 -0.74827,-2.80059 0.38603,-3.72174 4.97877,-4.04304 7.83415,-10.0357 7.83415,-16.4411 0,-11.67139 -9.49529,-21.16668 -21.16667,-21.16668 -10.795871,0 -19.838719,8.07728 -21.034768,18.78839 -0.162137,1.45225 -1.470316,2.49738 -2.923064,2.33603 -1.452112,-0.16226 -2.498063,-1.47097 -2.335794,-2.92322 1.495398,-13.3931 12.799085,-23.492871 26.293626,-23.492871 14.58929,0 26.45834,11.869171 26.45834,26.458351 0,8.00661 -3.56828,15.49646 -9.79011,20.54886 -0.49041,0.39831 -1.0803,0.59209 -1.6663,0.59209 z"
       id="path20" />
    <path
       inkscape:connector-curvature="0"
       style="fill:#010202;stroke-width:0.26458332"
       d="m 110.33597,93.951189 c -1.46116,0 -2.64583,-1.18455 -2.64583,-2.64583 v -14.2875 c 0,-1.46128 1.18467,-2.64583 2.64583,-2.64583 1.46117,0 2.64584,1.18455 2.64584,2.64583 v 14.2875 c 0,1.46128 -1.18467,2.64583 -2.64584,2.64583 z"
       id="path22" />
    <path
       inkscape:connector-curvature="0"
       style="fill:#010202;stroke-width:0.26458332"
       d="m 76.998474,127.28869 h -14.2875 c -1.461267,0 -2.645833,-1.18454 -2.645833,-2.64583 0,-1.46127 1.184566,-2.64583 2.645833,-2.64583 h 14.2875 c 1.461294,0 2.645833,1.18456 2.645833,2.64583 0,1.46129 -1.184539,2.64583 -2.645833,2.64583 z"
       id="path24" />
    <path
       inkscape:connector-curvature="0"
       style="fill:#010202;stroke-width:0.26458332"
       d="m 157.96097,127.28869 h -14.2875 c -1.46116,0 -2.64583,-1.18454 -2.64583,-2.64583 0,-1.46127 1.18467,-2.64583 2.64583,-2.64583 h 14.2875 c 1.46117,0 2.64584,1.18456 2.64584,2.64583 0,1.46129 -1.18467,2.64583 -2.64584,2.64583 z"
       id="path26" />
    <path
       inkscape:connector-curvature="0"
       style="fill:#010202;stroke-width:0.26458332"
       d="m 133.76271,103.86196 c -0.67723,0 -1.35419,-0.25825 -1.87095,-0.77489 -1.03327,-1.03327 -1.03327,-2.70862 0,-3.741891 l 10.24925,-10.24925 c 1.03351,-1.03326 2.70835,-1.03326 3.74189,0 1.03325,1.03327 1.03325,2.70862 0,3.7419 l -10.24924,10.249241 c -0.51676,0.51663 -1.19372,0.77489 -1.87095,0.77489 z"
       id="path28" />
    <path
       inkscape:connector-curvature="0"
       style="fill:#010202;stroke-width:0.26458332"
       d="m 86.909237,103.86196 c -0.677096,0 -1.354297,-0.25825 -1.870948,-0.77489 L 74.789045,92.837829 c -1.033145,-1.03327 -1.033145,-2.70862 0,-3.7419 1.033277,-1.03326 2.708619,-1.03326 3.741896,0 l 10.249244,10.24925 c 1.033145,1.033271 1.033145,2.708621 0,3.741891 -0.516626,0.51663 -1.193853,0.77489 -1.870948,0.77489 z"
       id="path30" />
    <path
       inkscape:connector-curvature="0"
       style="fill:#010202;stroke-width:0.26458332"
       d="m 144.01196,160.96467 c -0.67723,0 -1.35419,-0.25826 -1.87095,-0.77488 l -10.24925,-10.24925 c -1.03327,-1.03327 -1.03327,-2.70861 0,-3.74189 1.03355,-1.03328 2.70836,-1.03328 3.7419,0 l 10.24924,10.24924 c 1.03328,1.03328 1.03328,2.70862 0,3.7419 -0.51675,0.51662 -1.19372,0.77488 -1.87094,0.77488 z"
       id="path32" />
    <path
       inkscape:connector-curvature="0"
       style="fill:#010202;stroke-width:0.26458332"
       d="M 57.410523,185.49703 C 47.231552,185.43003 38.96462,177.1208 38.96462,166.9745 c 0,-8.81703 6.081924,-16.1871 14.361266,-18.06117 -0.13462,-0.74065 -0.202168,-1.49641 -0.202168,-2.26457 0,-6.94598 5.650944,-12.59692 12.597024,-12.59692 2.307087,0 4.518448,0.61574 6.44779,1.76953 5.286639,-6.99103 13.444008,-11.08535 22.346837,-11.08535 13.914021,0 25.642231,10.24948 27.723231,23.75538 9.63044,0.64881 17.26769,8.69095 17.26769,18.48313 0,10.11293 -8.22741,18.42148 -18.3405,18.52107 z m 8.310219,-46.15352 c -4.028176,0 -7.305384,3.27707 -7.305384,7.30525 0,1.14914 0.260853,2.25075 0.775282,3.27395 0.403992,0.80357 0.372084,1.75739 -0.08475,2.53228 -0.456803,0.77475 -1.276006,1.26439 -2.174796,1.29992 -7.107317,0.28059 -12.674812,6.08735 -12.674812,13.21959 0,7.24762 5.908808,13.18305 13.171673,13.23086 h 63.711755 c 7.19775,-0.071 13.07491,-6.00583 13.07491,-13.22954 0,-7.2971 -5.93659,-13.23369 -13.23356,-13.23369 -0.27183,0 -0.5674,0.0116 -0.92993,0.0369 -0.70019,0.0479 -1.39552,-0.18423 -1.92545,-0.64802 -0.52994,-0.46365 -0.85344,-1.11932 -0.89839,-1.8221 -0.7656,-11.93274 -10.74172,-21.27997 -22.711921,-21.27997 -8.027428,0 -15.308497,4.10337 -19.476981,10.97645 -0.421931,0.69583 -1.140751,1.15872 -1.948842,1.25521 -0.807958,0.0954 -1.615545,-0.18433 -2.1894,-0.76144 -1.381707,-1.38933 -3.221117,-2.1544 -5.179404,-2.1544 z"
       id="path34" />
  </g>
</svg>
