<?xml version="1.0" encoding="iso-8859-1"?>
<!-- Generator: Adobe Illustrator 19.0.0, SVG Export Plug-In . SVG Version: 6.00 Build 0)  -->
<svg version="1.1" id="Capa_1" xmlns="http://www.w3.org/2000/svg" xmlns:xlink="http://www.w3.org/1999/xlink" x="0px" y="0px"
	 viewBox="0 0 287.068 287.068" style="enable-background:new 0 0 287.068 287.068;" xml:space="preserve">
<g>
	<g id="Dibujo_64_">
		<g>
			<path d="M154.575,201.08V44.164c0-6.095-4.946-11.041-11.041-11.041c-6.1,0-11.041,4.946-11.041,11.041V201.08
				c-9.733,4.267-16.562,13.972-16.562,25.262c0,15.22,12.383,27.603,27.603,27.603c15.22,0,27.603-12.383,27.603-27.603
				C171.137,215.053,164.308,205.348,154.575,201.08z M143.534,231.863c-3.047,0-5.521-2.473-5.521-5.521s2.473-5.521,5.521-5.521
				s5.521,2.473,5.521,5.521S146.582,231.863,143.534,231.863z"/>
			<path d="M187.748,184.712l-0.05-140.548C187.699,19.813,167.885,0,143.534,0S99.37,19.813,99.37,44.159l-0.055,140.553
				c-10.544,11.223-16.506,26.129-16.506,41.63c0,33.482,27.244,60.726,60.726,60.726s60.726-27.244,60.726-60.726
				C204.26,210.835,198.298,195.93,187.748,184.712z M143.534,264.986c-21.304,0-38.644-17.34-38.644-38.644
				c0-10.953,4.681-21.447,12.846-28.779c2.33-2.098,3.66-5.079,3.66-8.209l0.055-145.19c0-12.178,9.904-22.082,22.082-22.082
				c12.178,0,22.082,9.904,22.082,22.088l0.05,145.185c0,3.13,1.33,6.117,3.666,8.209c8.159,7.331,12.846,17.82,12.846,28.779
				C182.178,247.646,164.838,264.986,143.534,264.986z"/>
		</g>
	</g>
</g>
<g>
</g>
<g>
</g>
<g>
</g>
<g>
</g>
<g>
</g>
<g>
</g>
<g>
</g>
<g>
</g>
<g>
</g>
<g>
</g>
<g>
</g>
<g>
</g>
<g>
</g>
<g>
</g>
<g>
</g>
</svg>
