<?xml version="1.0" encoding="UTF-8" standalone="no"?>
<!-- Created with Inkscape (http://www.inkscape.org/) -->

<svg
   xmlns:dc="http://purl.org/dc/elements/1.1/"
   xmlns:cc="http://creativecommons.org/ns#"
   xmlns:rdf="http://www.w3.org/1999/02/22-rdf-syntax-ns#"
   xmlns:svg="http://www.w3.org/2000/svg"
   xmlns="http://www.w3.org/2000/svg"
   xmlns:sodipodi="http://sodipodi.sourceforge.net/DTD/sodipodi-0.dtd"
   xmlns:inkscape="http://www.inkscape.org/namespaces/inkscape"
   width="210mm"
   height="297mm"
   viewBox="0 0 210 297"
   version="1.1"
   id="svg4476"
   inkscape:version="0.92.4 (unknown)"
   sodipodi:docname="vent.svg">
  <defs
     id="defs4470" />
  <sodipodi:namedview
     id="base"
     pagecolor="#ffffff"
     bordercolor="#666666"
     borderopacity="1.0"
     inkscape:pageopacity="0.0"
     inkscape:pageshadow="2"
     inkscape:zoom="0.35"
     inkscape:cx="400"
     inkscape:cy="560"
     inkscape:document-units="mm"
     inkscape:current-layer="layer1"
     showgrid="false"
     inkscape:window-width="1600"
     inkscape:window-height="871"
     inkscape:window-x="0"
     inkscape:window-y="0"
     inkscape:window-maximized="1" />
  <metadata
     id="metadata4473">
    <rdf:RDF>
      <cc:Work
         rdf:about="">
        <dc:format>image/svg+xml</dc:format>
        <dc:type
           rdf:resource="http://purl.org/dc/dcmitype/StillImage" />
        <dc:title></dc:title>
      </cc:Work>
    </rdf:RDF>
  </metadata>
  <g
     inkscape:label="Calque 1"
     inkscape:groupmode="layer"
     id="layer1">
    <path
       inkscape:connector-curvature="0"
       style="fill:#010202;stroke-width:0.26458332"
       d="M 136.80126,64.21355 H 69.839984 c -5.204857,0 -9.602258,-4.48178 -9.602258,-9.78676 0,-5.39644 4.300511,-9.78685 9.586489,-9.78685 5.28185,0 9.578736,4.36162 9.578736,9.72267 0,1.46126 -1.184672,2.64583 -2.645833,2.64583 -1.461135,0 -2.645833,-1.18457 -2.645833,-2.64583 0,-2.40181 -1.963182,-4.43101 -4.28707,-4.43101 -2.328016,0 -4.294823,2.05854 -4.294823,4.49519 0,2.43655 1.97403,4.49509 4.310592,4.49509 h 66.961276 c 1.46117,0 2.64584,1.18456 2.64584,2.64583 0,1.4613 -1.18467,2.64584 -2.64584,2.64584 z"
       id="path78" />
    <path
       inkscape:connector-curvature="0"
       style="fill:#010202;stroke-width:0.26458332"
       d="M 150.29501,52.83646 H 96.091859 c -6.647917,0 -12.056371,-5.46182 -12.056371,-12.17536 0,-6.71353 5.383927,-12.17549 12.001611,-12.17549 6.602701,0 11.974191,5.44 11.974191,12.12665 0,1.4613 -1.18467,2.64584 -2.64583,2.64584 -1.46114,0 -2.64584,-1.18454 -2.64584,-2.64584 0,-3.76875 -2.997751,-6.83498 -6.682521,-6.83498 -3.69978,0 -6.709944,3.08806 -6.709944,6.88382 0,3.73132 3.097741,6.8837 6.764704,6.8837 h 54.203151 c 1.46117,0 2.64584,1.18456 2.64584,2.64583 0,1.46129 -1.18467,2.64583 -2.64584,2.64583 z"
       id="path80" />
    <path
       inkscape:connector-curvature="0"
       style="fill:#010202;stroke-width:0.26458332"
       d="m 78.424734,93.8001 c -3.211698,0 -6.223397,-1.21878 -8.480636,-3.43183 -2.279439,-2.23475 -3.534913,-5.2361 -3.534913,-8.4509 0,-6.5523 5.402262,-11.88299 12.042404,-11.88299 h 66.022591 c 1.46116,0 2.64583,1.18467 2.64583,2.64583 0,1.46116 -1.18467,2.64584 -2.64583,2.64584 H 78.451589 c -3.785552,0 -6.750738,2.89517 -6.750738,6.59132 0,3.69591 2.95357,6.59106 6.723883,6.59106 3.762798,0 6.710442,-2.9166 6.710442,-6.6399 0,-1.46114 1.184672,-2.64583 2.645833,-2.64583 1.461135,0 2.645833,1.18469 2.645833,2.64583 0,6.57921 -5.384191,11.93157 -12.002108,11.93157 z"
       id="path82" />
  </g>
</svg>
