<?xml version="1.0" encoding="UTF-8" standalone="no"?>
<!-- Created with Inkscape (http://www.inkscape.org/) -->

<svg
   xmlns:dc="http://purl.org/dc/elements/1.1/"
   xmlns:cc="http://creativecommons.org/ns#"
   xmlns:rdf="http://www.w3.org/1999/02/22-rdf-syntax-ns#"
   xmlns:svg="http://www.w3.org/2000/svg"
   xmlns="http://www.w3.org/2000/svg"
   xmlns:sodipodi="http://sodipodi.sourceforge.net/DTD/sodipodi-0.dtd"
   xmlns:inkscape="http://www.inkscape.org/namespaces/inkscape"
   width="210mm"
   height="297mm"
   viewBox="0 0 210 297"
   version="1.1"
   id="svg4757"
   inkscape:version="0.92.4 (unknown)"
   sodipodi:docname="vent_pluie.svg">
  <defs
     id="defs4751" />
  <sodipodi:namedview
     id="base"
     pagecolor="#ffffff"
     bordercolor="#666666"
     borderopacity="1.0"
     inkscape:pageopacity="0.0"
     inkscape:pageshadow="2"
     inkscape:zoom="0.35"
     inkscape:cx="400"
     inkscape:cy="560"
     inkscape:document-units="mm"
     inkscape:current-layer="layer1"
     showgrid="false"
     inkscape:window-width="1600"
     inkscape:window-height="871"
     inkscape:window-x="0"
     inkscape:window-y="0"
     inkscape:window-maximized="1" />
  <metadata
     id="metadata4754">
    <rdf:RDF>
      <cc:Work
         rdf:about="">
        <dc:format>image/svg+xml</dc:format>
        <dc:type
           rdf:resource="http://purl.org/dc/dcmitype/StillImage" />
        <dc:title></dc:title>
      </cc:Work>
    </rdf:RDF>
  </metadata>
  <g
     inkscape:label="Calque 1"
     inkscape:groupmode="layer"
     id="layer1">
    <path
       inkscape:connector-curvature="0"
       style="fill:#010202;stroke-width:0.26458332"
       d="M 129.67576,68.29404 H 62.813438 c -1.461161,0 -2.645833,-1.18468 -2.645833,-2.64584 0,-1.46116 1.184672,-2.64583 2.645833,-2.64583 h 66.862322 c 2.34328,0 4.323,-2.01306 4.323,-4.39587 0,-2.42387 -1.92109,-4.39584 -4.28244,-4.39584 -2.35024,0 -4.26228,1.95802 -4.26228,4.3646 0,1.46113 -1.18467,2.64583 -2.64583,2.64583 -1.46114,0 -2.64583,-1.1847 -2.64583,-2.64583 0,-5.32448 4.28579,-9.656264 9.55394,-9.656264 5.27926,0 9.57411,4.345724 9.57411,9.687504 0,5.34181 -4.31319,9.68754 -9.61467,9.68754 z"
       id="path84" />
    <path
       inkscape:connector-curvature="0"
       style="fill:#010202;stroke-width:0.26458332"
       d="M 103.42388,56.91695 H 49.319688 c -1.461162,0 -2.645833,-1.18467 -2.645833,-2.64583 0,-1.46116 1.184671,-2.645833 2.645833,-2.645833 h 54.104192 c 3.73698,0 6.7771,-3.043476 6.7771,-6.784605 0,-3.740838 -3.00445,-6.78434 -6.69751,-6.78434 -3.671093,0 -6.657736,3.036252 -6.657736,6.768598 0,1.461135 -1.184698,2.645833 -2.645833,2.645833 -1.461162,0 -2.645834,-1.184698 -2.645834,-2.645833 0,-6.649985 5.360379,-12.060265 11.949403,-12.060265 6.61096,0 11.98917,5.417238 11.98917,12.076007 0,6.658769 -5.41411,12.076268 -12.06876,12.076268 z"
       id="path86" />
    <path
       inkscape:connector-curvature="0"
       style="fill:#010202;stroke-width:0.26458332"
       d="m 125.87833,98.07903 c -6.60426,0 -11.97732,-5.3821 -11.97732,-11.99772 0,-1.46113 1.1847,-2.64583 2.64584,-2.64583 1.46116,0 2.64583,1.1847 2.64583,2.64583 0,3.69771 2.99905,6.70605 6.68565,6.70605 3.7008,0 6.71173,-3.00135 6.71173,-6.69028 0,-3.68916 -3.03392,-6.69054 -6.76341,-6.69054 H 54.611355 c -1.461162,0 -2.645834,-1.18468 -2.645834,-2.64584 0,-1.46116 1.184672,-2.64583 2.645834,-2.64583 h 71.215295 c 6.64713,0 12.05508,5.37512 12.05508,11.98221 0,6.60683 -5.38469,11.98195 -12.0034,11.98195 z"
       id="path88" />
    <path
       inkscape:connector-curvature="0"
       style="fill:#010202;stroke-width:0.26458332"
       d="m 81.852326,112.19884 c -0.67773,0 -1.355222,-0.25863 -1.871716,-0.77592 -1.032748,-1.03378 -1.03198,-2.70912 0.0026,-3.74163 l 6.625696,-6.61898 c 1.03378,-1.03275 2.709413,-1.03198 3.741632,0.003 1.032748,1.03378 1.031981,2.70912 -0.0026,3.74163 l -6.625696,6.61898 c -0.51652,0.51599 -1.193218,0.77409 -1.869916,0.77409 z"
       id="path90" />
    <path
       inkscape:connector-curvature="0"
       style="fill:#010202;stroke-width:0.26458332"
       d="m 58.833576,97.11759 c -0.67773,0 -1.354958,-0.25863 -1.871716,-0.77592 -1.032748,-1.03378 -1.031981,-2.70888 0.0026,-3.74163 l 4.1783,-4.17415 c 1.03378,-1.03277 2.708884,-1.03198 3.741632,0.003 1.032748,1.03378 1.031981,2.70888 -0.0026,3.74163 l -4.1783,4.17418 c -0.51652,0.51599 -1.193218,0.77409 -1.869916,0.77409 z"
       id="path92" />
    <path
       inkscape:connector-curvature="0"
       style="fill:#010202;stroke-width:0.26458332"
       d="m 95.610659,97.11759 c -0.67773,0 -1.354958,-0.25863 -1.871715,-0.77592 -1.032748,-1.03378 -1.031981,-2.70888 0.0026,-3.74163 l 4.1783,-4.17415 c 1.03378,-1.03277 2.708886,-1.03198 3.741636,0.003 1.03274,1.03378 1.03198,2.70888 -0.003,3.74163 l -4.178305,4.17418 c -0.516519,0.51599 -1.193218,0.77409 -1.869916,0.77409 z"
       id="path94" />
    <path
       inkscape:connector-curvature="0"
       style="fill:#010202;stroke-width:0.26458332"
       d="m 106.98774,107.21491 c -0.67826,0 -1.35649,-0.25916 -1.87351,-0.77746 -1.03172,-1.03483 -1.02942,-2.70991 0.005,-3.74189 l 5.02502,-5.01108 c 1.03481,-1.03145 2.70965,-1.02991 3.74189,0.005 1.03172,1.03481 1.02939,2.70992 -0.005,3.74187 l -5.02501,5.01108 c -0.5165,0.51496 -1.19243,0.77229 -1.86836,0.77229 z"
       id="path96" />
    <path
       inkscape:connector-curvature="0"
       style="fill:#010202;stroke-width:0.26458332"
       d="m 67.564826,106.68574 c -0.67773,0 -1.355222,-0.25863 -1.871716,-0.77592 -1.032748,-1.03378 -1.03198,-2.70888 0.0026,-3.74163 l 13.75627,-13.7423 c 1.03378,-1.03275 2.709386,-1.03198 3.741631,0.003 1.032749,1.03378 1.031981,2.70888 -0.0026,3.74163 l -13.75627,13.74233 c -0.51652,0.51596 -1.193218,0.77409 -1.869916,0.77409 z"
       id="path98" />
  </g>
</svg>
