<?xml version="1.0" encoding="UTF-8"?>
<!DOCTYPE svg PUBLIC "-//W3C//DTD SVG 1.1//EN" "http://www.w3.org/Graphics/SVG/1.1/DTD/svg11.dtd">
<svg version="1.2" width="130.29mm" height="96.98mm" viewBox="3000 1031 13029 9698" preserveAspectRatio="xMidYMid" fill-rule="evenodd" stroke-width="28.222" stroke-linejoin="round" xmlns="http://www.w3.org/2000/svg" xmlns:ooo="http://xml.openoffice.org/svg/export" xmlns:xlink="http://www.w3.org/1999/xlink" xmlns:presentation="http://sun.com/xmlns/staroffice/presentation" xmlns:smil="http://www.w3.org/2001/SMIL20/" xmlns:anim="urn:oasis:names:tc:opendocument:xmlns:animation:1.0" xml:space="preserve">
 <defs class="ClipPathGroup">
  <clipPath id="presentation_clip_path" clipPathUnits="userSpaceOnUse">
   <rect x="3000" y="1031" width="13029" height="9698"/>
  </clipPath>
  <clipPath id="presentation_clip_path_shrink" clipPathUnits="userSpaceOnUse">
   <rect x="3013" y="1040" width="13003" height="9679"/>
  </clipPath>
 </defs>
 <defs class="TextShapeIndex">
  <g ooo:slide="id1" ooo:id-list="id3"/>
 </defs>
 <defs class="EmbeddedBulletChars">
  <g id="bullet-char-template-57356" transform="scale(0.00048828125,-0.00048828125)">
   <path d="M 580,1141 L 1163,571 580,0 -4,571 580,1141 Z"/>
  </g>
  <g id="bullet-char-template-57354" transform="scale(0.00048828125,-0.00048828125)">
   <path d="M 8,1128 L 1137,1128 1137,0 8,0 8,1128 Z"/>
  </g>
  <g id="bullet-char-template-10146" transform="scale(0.00048828125,-0.00048828125)">
   <path d="M 174,0 L 602,739 174,1481 1456,739 174,0 Z M 1358,739 L 309,1346 659,739 1358,739 Z"/>
  </g>
  <g id="bullet-char-template-10132" transform="scale(0.00048828125,-0.00048828125)">
   <path d="M 2015,739 L 1276,0 717,0 1260,543 174,543 174,936 1260,936 717,1481 1274,1481 2015,739 Z"/>
  </g>
  <g id="bullet-char-template-10007" transform="scale(0.00048828125,-0.00048828125)">
   <path d="M 0,-2 C -7,14 -16,27 -25,37 L 356,567 C 262,823 215,952 215,954 215,979 228,992 255,992 264,992 276,990 289,987 310,991 331,999 354,1012 L 381,999 492,748 772,1049 836,1024 860,1049 C 881,1039 901,1025 922,1006 886,937 835,863 770,784 769,783 710,716 594,584 L 774,223 C 774,196 753,168 711,139 L 727,119 C 717,90 699,76 672,76 641,76 570,178 457,381 L 164,-76 C 142,-110 111,-127 72,-127 30,-127 9,-110 8,-76 1,-67 -2,-52 -2,-32 -2,-23 -1,-13 0,-2 Z"/>
  </g>
  <g id="bullet-char-template-10004" transform="scale(0.00048828125,-0.00048828125)">
   <path d="M 285,-33 C 182,-33 111,30 74,156 52,228 41,333 41,471 41,549 55,616 82,672 116,743 169,778 240,778 293,778 328,747 346,684 L 369,508 C 377,444 397,411 428,410 L 1163,1116 C 1174,1127 1196,1133 1229,1133 1271,1133 1292,1118 1292,1087 L 1292,965 C 1292,929 1282,901 1262,881 L 442,47 C 390,-6 338,-33 285,-33 Z"/>
  </g>
  <g id="bullet-char-template-9679" transform="scale(0.00048828125,-0.00048828125)">
   <path d="M 813,0 C 632,0 489,54 383,161 276,268 223,411 223,592 223,773 276,916 383,1023 489,1130 632,1184 813,1184 992,1184 1136,1130 1245,1023 1353,916 1407,772 1407,592 1407,412 1353,268 1245,161 1136,54 992,0 813,0 Z"/>
  </g>
  <g id="bullet-char-template-8226" transform="scale(0.00048828125,-0.00048828125)">
   <path d="M 346,457 C 273,457 209,483 155,535 101,586 74,649 74,723 74,796 101,859 155,911 209,963 273,989 346,989 419,989 480,963 531,910 582,859 608,796 608,723 608,648 583,586 532,535 482,483 420,457 346,457 Z"/>
  </g>
  <g id="bullet-char-template-8211" transform="scale(0.00048828125,-0.00048828125)">
   <path d="M -4,459 L 1135,459 1135,606 -4,606 -4,459 Z"/>
  </g>
  <g id="bullet-char-template-61548" transform="scale(0.00048828125,-0.00048828125)">
   <path d="M 173,740 C 173,903 231,1043 346,1159 462,1274 601,1332 765,1332 928,1332 1067,1274 1183,1159 1299,1043 1357,903 1357,740 1357,577 1299,437 1183,322 1067,206 928,148 765,148 601,148 462,206 346,322 231,437 173,577 173,740 Z"/>
  </g>
 </defs>
 <defs class="TextEmbeddedBitmaps"/>
 <g class="SlideGroup">
  <g>
   <g id="container-id1">
    <g id="id1" class="Slide" clip-path="url(#presentation_clip_path)">
     <g class="Page">
      <g class="Graphic">
       <g id="id3">
        <rect class="BoundingBox" stroke="none" fill="none" x="3000" y="1031" width="13030" height="9699"/>
        <defs>
         <clipPath id="clip_path_1" clipPathUnits="userSpaceOnUse">
          <path d="M 3000,1031 L 16029,1031 16029,10729 3000,10729 3000,1031 Z"/>
         </clipPath>
        </defs>
        <g clip-path="url(#clip_path_1)">
         <path fill="rgb(1,2,2)" stroke="none" d="M 12458,7663 L 12177,7663 12177,7663 6072,7661 C 5053,7661 4224,6831 4224,5811 4224,4931 4833,4195 5663,4008 5649,3934 5643,3858 5643,3782 5643,3087 6209,2522 6905,2522 7136,2522 7358,2584 7551,2699 8081,2000 8898,1590 9790,1590 11184,1590 12359,2615 12568,3965 13533,4030 14298,4834 14298,5813 14298,6823 13474,7653 12460,7663 12459,7663 12458,7663 12458,7663 L 12458,7663 Z M 12177,7134 L 12456,7134 C 13180,7126 13768,6534 13768,5813 13768,5083 13173,4490 12442,4490 12410,4490 12377,4492 12349,4494 12278,4499 12209,4476 12156,4429 12103,4383 12070,4317 12066,4247 11989,3054 10989,2119 9790,2119 8986,2119 8256,2530 7838,3217 7796,3287 7724,3333 7643,3343 7562,3352 7481,3324 7424,3266 7285,3127 7101,3051 6905,3051 6501,3051 6173,3379 6173,3781 6173,3896 6199,4007 6250,4109 6291,4189 6288,4285 6242,4362 6196,4439 6114,4488 6024,4492 5312,4520 4754,5100 4754,5811 4754,6539 5345,7132 6072,7132 L 6345,7132 12177,7134 Z"/>
         <path fill="rgb(1,2,2)" stroke="none" d="M 11849,9910 C 11849,9910 11849,9910 11849,9910 L 10354,9909 C 10208,9909 10089,9791 10089,9645 10089,9498 10208,9380 10354,9380 10354,9380 10354,9380 10355,9380 L 11849,9381 C 11996,9381 12114,9499 12114,9646 12114,9792 11995,9910 11849,9910 L 11849,9910 Z"/>
         <path fill="rgb(1,2,2)" stroke="none" d="M 9321,9910 L 9321,9910 6685,9909 C 6539,9909 6420,9791 6420,9645 6420,9499 6539,9380 6685,9380 L 6685,9380 9321,9381 C 9467,9381 9586,9499 9586,9646 9586,9792 9467,9910 9321,9910 L 9321,9910 Z"/>
         <path fill="rgb(1,2,2)" stroke="none" d="M 12465,8798 C 12465,8798 12465,8798 12465,8798 L 9031,8798 C 8885,8798 8766,8680 8766,8534 8766,8387 8885,8269 9031,8269 9031,8269 9031,8269 9031,8269 L 12465,8270 C 12612,8270 12731,8388 12730,8534 12730,8680 12612,8798 12465,8798 L 12465,8798 Z"/>
         <path fill="rgb(1,2,2)" stroke="none" d="M 8038,8798 C 8038,8798 8038,8798 8038,8798 L 6141,8798 C 5995,8798 5876,8680 5876,8533 5876,8387 5995,8269 6141,8269 6141,8269 6141,8269 6142,8269 L 8038,8270 C 8185,8270 8303,8388 8303,8534 8303,8680 8184,8798 8038,8798 L 8038,8798 Z"/>
        </g>
       </g>
      </g>
     </g>
    </g>
   </g>
  </g>
 </g>
</svg>