<?xml version="1.0" encoding="UTF-8"?>
<!DOCTYPE svg PUBLIC "-//W3C//DTD SVG 1.1//EN" "http://www.w3.org/Graphics/SVG/1.1/DTD/svg11.dtd">
<svg version="1.2" width="114.99mm" height="115.99mm" viewBox="2156 3056 11499 11599" preserveAspectRatio="xMidYMid" fill-rule="evenodd" stroke-width="28.222" stroke-linejoin="round" xmlns="http://www.w3.org/2000/svg" xmlns:ooo="http://xml.openoffice.org/svg/export" xmlns:xlink="http://www.w3.org/1999/xlink" xmlns:presentation="http://sun.com/xmlns/staroffice/presentation" xmlns:smil="http://www.w3.org/2001/SMIL20/" xmlns:anim="urn:oasis:names:tc:opendocument:xmlns:animation:1.0" xml:space="preserve">
 <defs class="ClipPathGroup">
  <clipPath id="presentation_clip_path" clipPathUnits="userSpaceOnUse">
   <rect x="2156" y="3056" width="11499" height="11599"/>
  </clipPath>
  <clipPath id="presentation_clip_path_shrink" clipPathUnits="userSpaceOnUse">
   <rect x="2167" y="3067" width="11477" height="11576"/>
  </clipPath>
 </defs>
 <defs class="TextShapeIndex">
  <g ooo:slide="id1" ooo:id-list="id3"/>
 </defs>
 <defs class="EmbeddedBulletChars">
  <g id="bullet-char-template-57356" transform="scale(0.00048828125,-0.00048828125)">
   <path d="M 580,1141 L 1163,571 580,0 -4,571 580,1141 Z"/>
  </g>
  <g id="bullet-char-template-57354" transform="scale(0.00048828125,-0.00048828125)">
   <path d="M 8,1128 L 1137,1128 1137,0 8,0 8,1128 Z"/>
  </g>
  <g id="bullet-char-template-10146" transform="scale(0.00048828125,-0.00048828125)">
   <path d="M 174,0 L 602,739 174,1481 1456,739 174,0 Z M 1358,739 L 309,1346 659,739 1358,739 Z"/>
  </g>
  <g id="bullet-char-template-10132" transform="scale(0.00048828125,-0.00048828125)">
   <path d="M 2015,739 L 1276,0 717,0 1260,543 174,543 174,936 1260,936 717,1481 1274,1481 2015,739 Z"/>
  </g>
  <g id="bullet-char-template-10007" transform="scale(0.00048828125,-0.00048828125)">
   <path d="M 0,-2 C -7,14 -16,27 -25,37 L 356,567 C 262,823 215,952 215,954 215,979 228,992 255,992 264,992 276,990 289,987 310,991 331,999 354,1012 L 381,999 492,748 772,1049 836,1024 860,1049 C 881,1039 901,1025 922,1006 886,937 835,863 770,784 769,783 710,716 594,584 L 774,223 C 774,196 753,168 711,139 L 727,119 C 717,90 699,76 672,76 641,76 570,178 457,381 L 164,-76 C 142,-110 111,-127 72,-127 30,-127 9,-110 8,-76 1,-67 -2,-52 -2,-32 -2,-23 -1,-13 0,-2 Z"/>
  </g>
  <g id="bullet-char-template-10004" transform="scale(0.00048828125,-0.00048828125)">
   <path d="M 285,-33 C 182,-33 111,30 74,156 52,228 41,333 41,471 41,549 55,616 82,672 116,743 169,778 240,778 293,778 328,747 346,684 L 369,508 C 377,444 397,411 428,410 L 1163,1116 C 1174,1127 1196,1133 1229,1133 1271,1133 1292,1118 1292,1087 L 1292,965 C 1292,929 1282,901 1262,881 L 442,47 C 390,-6 338,-33 285,-33 Z"/>
  </g>
  <g id="bullet-char-template-9679" transform="scale(0.00048828125,-0.00048828125)">
   <path d="M 813,0 C 632,0 489,54 383,161 276,268 223,411 223,592 223,773 276,916 383,1023 489,1130 632,1184 813,1184 992,1184 1136,1130 1245,1023 1353,916 1407,772 1407,592 1407,412 1353,268 1245,161 1136,54 992,0 813,0 Z"/>
  </g>
  <g id="bullet-char-template-8226" transform="scale(0.00048828125,-0.00048828125)">
   <path d="M 346,457 C 273,457 209,483 155,535 101,586 74,649 74,723 74,796 101,859 155,911 209,963 273,989 346,989 419,989 480,963 531,910 582,859 608,796 608,723 608,648 583,586 532,535 482,483 420,457 346,457 Z"/>
  </g>
  <g id="bullet-char-template-8211" transform="scale(0.00048828125,-0.00048828125)">
   <path d="M -4,459 L 1135,459 1135,606 -4,606 -4,459 Z"/>
  </g>
  <g id="bullet-char-template-61548" transform="scale(0.00048828125,-0.00048828125)">
   <path d="M 173,740 C 173,903 231,1043 346,1159 462,1274 601,1332 765,1332 928,1332 1067,1274 1183,1159 1299,1043 1357,903 1357,740 1357,577 1299,437 1183,322 1067,206 928,148 765,148 601,148 462,206 346,322 231,437 173,577 173,740 Z"/>
  </g>
 </defs>
 <defs class="TextEmbeddedBitmaps"/>
 <g class="SlideGroup">
  <g>
   <g id="container-id1">
    <g id="id1" class="Slide" clip-path="url(#presentation_clip_path)">
     <g class="Page">
      <g class="Graphic">
       <g id="id3">
        <rect class="BoundingBox" stroke="none" fill="none" x="2156" y="3056" width="11500" height="11600"/>
        <defs>
         <clipPath id="clip_path_1" clipPathUnits="userSpaceOnUse">
          <path d="M 2156,3056 L 13655,3056 13655,14655 2156,14655 2156,3056 Z"/>
         </clipPath>
        </defs>
        <g clip-path="url(#clip_path_1)"/>
        <defs>
         <clipPath id="clip_path_2" clipPathUnits="userSpaceOnUse">
          <path d="M 2156,3056 L 13655,3056 13655,14655 2156,14655 2156,3056 Z"/>
         </clipPath>
        </defs>
        <g clip-path="url(#clip_path_2)"/>
        <defs>
         <clipPath id="clip_path_3" clipPathUnits="userSpaceOnUse">
          <path d="M 2156,7473 L 5919,3056 12082,3056 13655,4396 13655,9040 8872,14655 5494,14655 2156,11811 2156,7473 Z"/>
         </clipPath>
        </defs>
        <g clip-path="url(#clip_path_3)">
         <path fill="rgb(0,0,0)" stroke="none" d="M -10509,20102 L -11306,21207 -11089,21516 C -10471,22395 -9713,23235 -8801,24045 -7649,25069 -6711,25692 -5413,26300 L -5057,26470 -5144,26539 C -5196,26578 -5625,26783 -6098,26996 -6575,27206 -6965,27393 -6968,27413 -6972,27433 -6954,27532 -6926,27635 L -6881,27821 -6682,27801 C -6575,27790 -6251,27774 -5960,27763 -5673,27752 -5069,27724 -4628,27701 -4183,27678 -3818,27674 -3817,27694 -3818,27712 -3803,27705 -3791,27679 -3775,27656 -3753,27646 -3737,27665 -3709,27703 -2624,27594 -2074,27497 -1040,27317 255,26770 465,26426 617,26177 592,26086 148,25239 -318,24360 -848,23302 -1335,22280 -1909,21068 -2040,20906 -2248,21150 -2337,21254 -2336,21524 -2244,22140 -2214,22333 -2196,22486 -2206,22487 -2221,22488 -2541,21836 -2811,21244 -2905,21035 -2995,20852 -3006,20843 -3027,20825 -3433,20942 -3426,20967 -3423,20974 -3368,21316 -3302,21734 -3183,22480 -3131,23029 -3158,23294 -3170,23417 -3175,23428 -3215,23388 -3242,23366 -3451,23225 -3681,23075 -4005,22864 -4264,22662 -4862,22152 -5829,21323 -6406,20740 -7552,19420 -7968,18941 -8058,18850 -8172,18799 -8359,18719 -8525,18772 -8674,18970 -8803,19143 -8790,19149 -9086,18790 -9194,18661 -9288,18548 -9301,18537 -9336,18507 -9694,18971 -10509,20102 L -10509,20102 -10509,20102 Z"/>
         <path fill="rgb(0,0,0)" stroke="none" d="M -4907,14474 C -4188,15815 -3317,17575 -2772,18795 -2647,19068 -2529,19299 -2506,19304 -2482,19315 -2384,19292 -2282,19259 -2133,19205 -2103,19185 -2109,19133 -2115,19096 -2152,18846 -2197,18572 -2271,18082 -2278,17923 -2219,18191 -2173,18392 -1951,18832 -1830,18963 -1751,19044 -1704,19070 -1634,19070 -1407,19064 -1383,18889 -1488,18077 -1574,17406 -1596,16942 -1539,16810 -1522,16774 -1523,16731 -1542,16715 -1560,16699 -1556,16689 -1522,16686 -1457,16681 -1007,16953 -559,17270 -18,17657 1199,18740 1808,19380 2346,19950 2984,20664 3446,21225 3621,21433 3773,21614 3789,21627 3810,21646 3879,21570 4019,21379 4213,21114 4220,21111 4241,21184 4275,21291 4476,21397 4615,21386 4685,21381 4779,21335 4849,21275 4982,21158 6260,19402 6347,19212 6418,19069 6425,18848 6366,18700 6310,18564 5938,18071 5565,17628 4343,16193 3052,15130 1471,14256 1178,14094 894,13927 840,13881 575,13655 711,13456 1320,13177 1546,13074 1787,12950 1858,12899 2174,12659 2031,12402 1575,12394 1469,12392 1378,12379 1379,12362 1374,12330 -1034,12455 -1677,12524 -2922,12653 -3899,12957 -4733,13469 -4940,13598 -5142,13727 -5187,13758 -5263,13814 -5260,13821 -4907,14474 L -4907,14474 -4907,14474 Z"/>
         <path fill="rgb(0,0,0)" stroke="none" d="M -17598,32223 C -17576,32534 -17536,33221 -17506,33752 -17414,35411 -17209,36377 -16758,37294 -16611,37590 -16190,38264 -16152,38264 -16142,38263 -15981,38183 -15799,38088 -15472,37922 -15335,37871 -15390,37935 -15418,37967 -15258,38062 -15122,38094 -14993,38121 -14835,38056 -14097,37667 -12949,37059 -11879,36526 -10798,36025 -10241,35763 -10043,35635 -9987,35497 -9913,35296 -10111,35192 -10490,35240 -10683,35265 -10714,35258 -10739,35190 -10758,35146 -10791,35114 -10813,35118 -10833,35120 -11087,35163 -11376,35208 -11665,35254 -12014,35304 -12150,35318 L -12404,35343 -12485,35204 C -12586,35035 -12576,34936 -12428,34627 -12167,34070 -11913,33717 -11028,32678 -10094,31583 -9803,31289 -8648,30282 -8279,29957 -7901,29607 -7810,29500 -7654,29317 -7641,29291 -7661,29177 -7671,29108 -7719,29007 -7769,28946 -7890,28805 -9647,27540 -9863,27439 -10057,27352 -10246,27368 -10429,27485 -10544,27559 -10556,27557 -10701,27462 -10783,27406 -10890,27329 -10935,27290 L -11019,27219 -11347,27458 C -11846,27826 -12334,28225 -12829,28670 -13219,29019 -13378,29189 -14047,29968 -14862,30927 -14986,31099 -15540,32026 -15716,32320 -15870,32560 -15885,32561 -15900,32563 -15898,32550 -15882,32531 -15839,32480 -16054,32042 -16190,31903 -16405,31682 -16604,31768 -16642,32101 -16664,32301 -16647,32705 -16610,32819 -16576,32932 -16743,32590 -16979,32056 -17091,31807 -17201,31593 -17224,31583 -17247,31577 -17346,31590 -17452,31616 L -17636,31663 -17598,32223 -17598,32223 -17598,32223 Z"/>
         <path fill="rgb(0,0,0)" stroke="none" d="M 5859,4314 C 5846,4423 5841,4521 5854,4532 5865,4542 6060,4601 6283,4666 6713,4787 6747,4801 6683,4821 6659,4828 6690,4873 6760,4933 6840,5002 6993,5062 7269,5140 7489,5197 7659,5259 7653,5277 7649,5292 7512,5398 7351,5511 5767,6635 4501,7997 3435,9721 3070,10314 2573,11239 2582,11315 2583,11357 4678,13494 4895,13675 4913,13691 4952,13677 4982,13643 5028,13589 5045,13590 5103,13658 5142,13700 5246,13757 5339,13784 5612,13865 5673,13810 6147,13041 7084,11533 7548,10886 8394,9893 9088,9079 9465,8701 9951,8337 10067,8250 10184,8151 10214,8121 10258,8075 10269,8079 10294,8142 10341,8261 10384,9021 10381,9699 L 10375,10325 10517,10354 C 10593,10367 10692,10382 10735,10386 10820,10389 10816,10400 10939,9999 10977,9879 11002,9817 10996,9862 10971,10022 11017,10354 11074,10434 11111,10489 11165,10517 11236,10526 11423,10551 11493,10393 11904,9014 12292,7705 12568,6837 12859,6001 13156,5147 13160,5012 12908,4797 12824,4726 12727,4661 12686,4654 12635,4643 12621,4627 12633,4586 12664,4506 12585,4457 12125,4269 11204,3892 10333,3756 9081,3802 8684,3816 7840,3898 6437,4056 L 5884,4117 5859,4314 5859,4314 5859,4314 Z"/>
        </g>
        <g clip-path="url(#clip_path_2)"/>
        <g clip-path="url(#clip_path_1)"/>
       </g>
      </g>
     </g>
    </g>
   </g>
  </g>
 </g>
</svg>