<?xml version="1.0" encoding="UTF-8"?>
<!DOCTYPE svg PUBLIC "-//W3C//DTD SVG 1.1//EN" "http://www.w3.org/Graphics/SVG/1.1/DTD/svg11.dtd">
<svg version="1.2" width="131.04mm" height="94.99mm" viewBox="32078 6478 13104 9499" preserveAspectRatio="xMidYMid" fill-rule="evenodd" stroke-width="28.222" stroke-linejoin="round" xmlns="http://www.w3.org/2000/svg" xmlns:ooo="http://xml.openoffice.org/svg/export" xmlns:xlink="http://www.w3.org/1999/xlink" xmlns:presentation="http://sun.com/xmlns/staroffice/presentation" xmlns:smil="http://www.w3.org/2001/SMIL20/" xmlns:anim="urn:oasis:names:tc:opendocument:xmlns:animation:1.0" xml:space="preserve">
 <defs class="ClipPathGroup">
  <clipPath id="presentation_clip_path" clipPathUnits="userSpaceOnUse">
   <rect x="32078" y="6478" width="13104" height="9499"/>
  </clipPath>
  <clipPath id="presentation_clip_path_shrink" clipPathUnits="userSpaceOnUse">
   <rect x="32091" y="6487" width="13078" height="9481"/>
  </clipPath>
 </defs>
 <defs class="TextShapeIndex">
  <g ooo:slide="id1" ooo:id-list="id3"/>
 </defs>
 <defs class="EmbeddedBulletChars">
  <g id="bullet-char-template-57356" transform="scale(0.00048828125,-0.00048828125)">
   <path d="M 580,1141 L 1163,571 580,0 -4,571 580,1141 Z"/>
  </g>
  <g id="bullet-char-template-57354" transform="scale(0.00048828125,-0.00048828125)">
   <path d="M 8,1128 L 1137,1128 1137,0 8,0 8,1128 Z"/>
  </g>
  <g id="bullet-char-template-10146" transform="scale(0.00048828125,-0.00048828125)">
   <path d="M 174,0 L 602,739 174,1481 1456,739 174,0 Z M 1358,739 L 309,1346 659,739 1358,739 Z"/>
  </g>
  <g id="bullet-char-template-10132" transform="scale(0.00048828125,-0.00048828125)">
   <path d="M 2015,739 L 1276,0 717,0 1260,543 174,543 174,936 1260,936 717,1481 1274,1481 2015,739 Z"/>
  </g>
  <g id="bullet-char-template-10007" transform="scale(0.00048828125,-0.00048828125)">
   <path d="M 0,-2 C -7,14 -16,27 -25,37 L 356,567 C 262,823 215,952 215,954 215,979 228,992 255,992 264,992 276,990 289,987 310,991 331,999 354,1012 L 381,999 492,748 772,1049 836,1024 860,1049 C 881,1039 901,1025 922,1006 886,937 835,863 770,784 769,783 710,716 594,584 L 774,223 C 774,196 753,168 711,139 L 727,119 C 717,90 699,76 672,76 641,76 570,178 457,381 L 164,-76 C 142,-110 111,-127 72,-127 30,-127 9,-110 8,-76 1,-67 -2,-52 -2,-32 -2,-23 -1,-13 0,-2 Z"/>
  </g>
  <g id="bullet-char-template-10004" transform="scale(0.00048828125,-0.00048828125)">
   <path d="M 285,-33 C 182,-33 111,30 74,156 52,228 41,333 41,471 41,549 55,616 82,672 116,743 169,778 240,778 293,778 328,747 346,684 L 369,508 C 377,444 397,411 428,410 L 1163,1116 C 1174,1127 1196,1133 1229,1133 1271,1133 1292,1118 1292,1087 L 1292,965 C 1292,929 1282,901 1262,881 L 442,47 C 390,-6 338,-33 285,-33 Z"/>
  </g>
  <g id="bullet-char-template-9679" transform="scale(0.00048828125,-0.00048828125)">
   <path d="M 813,0 C 632,0 489,54 383,161 276,268 223,411 223,592 223,773 276,916 383,1023 489,1130 632,1184 813,1184 992,1184 1136,1130 1245,1023 1353,916 1407,772 1407,592 1407,412 1353,268 1245,161 1136,54 992,0 813,0 Z"/>
  </g>
  <g id="bullet-char-template-8226" transform="scale(0.00048828125,-0.00048828125)">
   <path d="M 346,457 C 273,457 209,483 155,535 101,586 74,649 74,723 74,796 101,859 155,911 209,963 273,989 346,989 419,989 480,963 531,910 582,859 608,796 608,723 608,648 583,586 532,535 482,483 420,457 346,457 Z"/>
  </g>
  <g id="bullet-char-template-8211" transform="scale(0.00048828125,-0.00048828125)">
   <path d="M -4,459 L 1135,459 1135,606 -4,606 -4,459 Z"/>
  </g>
  <g id="bullet-char-template-61548" transform="scale(0.00048828125,-0.00048828125)">
   <path d="M 173,740 C 173,903 231,1043 346,1159 462,1274 601,1332 765,1332 928,1332 1067,1274 1183,1159 1299,1043 1357,903 1357,740 1357,577 1299,437 1183,322 1067,206 928,148 765,148 601,148 462,206 346,322 231,437 173,577 173,740 Z"/>
  </g>
 </defs>
 <defs class="TextEmbeddedBitmaps"/>
 <g class="SlideGroup">
  <g>
   <g id="container-id1">
    <g id="id1" class="Slide" clip-path="url(#presentation_clip_path)">
     <g class="Page">
      <g class="Graphic">
       <g id="id3">
        <rect class="BoundingBox" stroke="none" fill="none" x="32078" y="6478" width="13105" height="9500"/>
        <defs>
         <clipPath id="clip_path_1" clipPathUnits="userSpaceOnUse">
          <path d="M 32078,6478 L 45182,6478 45182,15977 32078,15977 32078,6478 Z"/>
         </clipPath>
        </defs>
        <g clip-path="url(#clip_path_1)">
         <path fill="rgb(0,0,0)" stroke="none" d="M 17550,4755 L 16193,4864 16097,5231 C 15829,6271 15681,7393 15656,8613 15625,10155 15759,11273 16136,12655 L 16238,13036 16129,13015 C 16066,13001 15632,12807 15163,12585 14693,12359 14298,12183 14281,12193 14263,12204 14200,12281 14140,12370 L 14027,12525 14171,12662 C 14249,12736 14471,12973 14669,13188 14863,13400 15275,13840 15579,14161 15886,14486 16125,14761 16111,14775 16097,14786 16111,14793 16140,14786 16168,14782 16189,14793 16185,14817 16175,14863 16961,15618 17392,15974 18200,16644 19455,17276 19854,17212 20143,17166 20196,17089 20552,16200 20919,15276 21381,14186 21843,13153 22393,11929 22432,11724 22111,11724 21974,11724 21769,11901 21360,12370 21233,12518 21127,12631 21120,12624 21109,12613 21399,11946 21674,11357 21773,11149 21854,10962 21854,10948 21854,10920 21501,10687 21487,10708 21483,10716 21258,10980 20982,11301 20492,11876 20108,12271 19889,12423 19787,12493 19776,12497 19780,12440 19780,12405 19751,12155 19716,11883 19667,11498 19653,11170 19653,10384 19656,9111 19727,8292 19988,6564 20083,5936 20094,5809 20058,5690 19998,5496 19850,5404 19603,5418 19388,5432 19392,5446 19473,4988 19501,4822 19526,4677 19526,4660 19526,4614 18940,4642 17550,4755 L 17550,4755 Z"/>
         <path fill="rgb(0,0,0)" stroke="none" d="M 25469,5369 C 24915,6786 24139,8592 23564,9798 23437,10070 23339,10310 23349,10331 23356,10356 23437,10416 23529,10472 23667,10550 23702,10560 23737,10522 23762,10493 23928,10303 24108,10091 24432,9717 24549,9608 24383,9827 24259,9992 24069,10447 24048,10624 24037,10737 24048,10790 24094,10842 24245,11012 24393,10917 24944,10310 25399,9809 25737,9492 25875,9449 25914,9439 25945,9411 25945,9386 25945,9361 25956,9358 25981,9382 26026,9428 26111,9947 26160,10493 26217,11156 26182,12786 26090,13664 26005,14444 25875,15392 25748,16108 25702,16376 25663,16609 25663,16630 25663,16658 25765,16662 26002,16644 26330,16620 26337,16623 26295,16687 26235,16782 26284,17004 26383,17103 26432,17152 26527,17195 26619,17209 26795,17233 28961,17068 29162,17011 29317,16972 29490,16835 29564,16694 29631,16563 29765,15960 29861,15389 30160,13527 30132,11855 29772,10084 29705,9756 29649,9432 29649,9361 29649,9012 29889,8987 30495,9269 30721,9375 30972,9478 31056,9499 31444,9583 31547,9308 31257,8956 31190,8874 31141,8797 31155,8786 31176,8762 29518,7009 29049,6564 28143,5700 27279,5153 26347,4850 26115,4776 25885,4705 25832,4691 25741,4670 25737,4677 25469,5369 L 25469,5369 Z"/>
         <path fill="rgb(0,0,0)" stroke="none" d="M 3724,7220 C 3502,7439 3004,7915 2620,8282 1417,9428 814,10211 408,11149 278,11453 38,12211 62,12239 70,12246 235,12317 426,12394 764,12535 891,12606 807,12606 764,12606 796,12789 860,12913 923,13029 1075,13107 1851,13417 3057,13897 4158,14366 5240,14863 5801,15117 6027,15184 6168,15138 6369,15064 6320,14846 6038,14588 5893,14458 5879,14429 5914,14366 5935,14324 5939,14278 5921,14264 5907,14250 5710,14084 5487,13893 5265,13703 5001,13470 4902,13375 L 4718,13199 4771,13047 C 4835,12860 4916,12803 5247,12715 5840,12553 6274,12518 7639,12518 9078,12518 9491,12550 11007,12775 11494,12846 12006,12906 12147,12906 12387,12906 12415,12899 12489,12811 12535,12758 12581,12655 12595,12578 12623,12394 12447,10236 12383,10007 12323,9802 12189,9668 11981,9604 11850,9566 11843,9555 11822,9382 11812,9284 11801,9153 11801,9093 L 11801,8984 11406,8889 C 10803,8747 10182,8635 9523,8546 9004,8476 8771,8465 7745,8462 6486,8462 6274,8479 5209,8659 4870,8716 4588,8754 4577,8744 4567,8733 4577,8726 4602,8726 4669,8726 4863,8278 4881,8084 4909,7778 4715,7682 4436,7869 4270,7982 3974,8257 3911,8359 3847,8458 3999,8109 4253,7584 4369,7337 4461,7114 4454,7090 4443,7069 4369,7002 4281,6938 L 4126,6829 3724,7220 3724,7220 Z"/>
         <path fill="rgb(0,0,0)" stroke="none" d="M 40188,6977 C 40097,7037 40019,7097 40019,7114 40019,7129 40100,7315 40195,7527 40382,7933 40393,7968 40336,7933 40315,7919 40301,7971 40301,8063 40301,8169 40354,8324 40474,8585 40573,8790 40636,8959 40619,8966 40605,8973 40435,8938 40245,8889 38361,8412 36502,8331 34499,8638 33811,8744 32785,8966 32732,9023 32700,9051 32432,12031 32435,12313 32435,12338 32471,12359 32517,12359 32587,12359 32598,12373 32584,12461 32577,12518 32601,12634 32640,12722 32756,12983 32838,12994 33730,12856 35487,12592 36280,12525 37585,12525 38654,12525 39187,12567 39779,12701 39920,12733 40072,12758 40114,12761 40178,12765 40181,12775 40150,12835 40090,12948 39539,13474 39021,13911 L 38541,14313 38612,14440 C 38650,14507 38703,14592 38728,14627 38781,14694 38770,14697 39155,14532 39271,14482 39335,14461 39296,14486 39158,14571 38936,14821 38911,14916 38894,14980 38908,15040 38947,15100 39049,15258 39215,15209 40530,14627 41779,14073 42619,13721 43444,13400 44287,13072 44393,12987 44393,12655 44393,12546 44379,12430 44358,12394 44333,12349 44336,12327 44375,12310 44456,12281 44442,12190 44287,11717 43977,10772 43514,10021 42668,9097 42400,8804 41790,8215 40760,7248 L 40354,6868 40188,6977 40188,6977 Z"/>
        </g>
       </g>
      </g>
     </g>
    </g>
   </g>
  </g>
 </g>
</svg>