<?xml version="1.0" encoding="UTF-8"?>
<!DOCTYPE svg PUBLIC "-//W3C//DTD SVG 1.1//EN" "http://www.w3.org/Graphics/SVG/1.1/DTD/svg11.dtd">
<svg version="1.2" width="119.99mm" height="109.99mm" viewBox="1749 2349 11999 10999" preserveAspectRatio="xMidYMid" fill-rule="evenodd" stroke-width="28.222" stroke-linejoin="round" xmlns="http://www.w3.org/2000/svg" xmlns:ooo="http://xml.openoffice.org/svg/export" xmlns:xlink="http://www.w3.org/1999/xlink" xmlns:presentation="http://sun.com/xmlns/staroffice/presentation" xmlns:smil="http://www.w3.org/2001/SMIL20/" xmlns:anim="urn:oasis:names:tc:opendocument:xmlns:animation:1.0" xml:space="preserve">
 <defs class="ClipPathGroup">
  <clipPath id="presentation_clip_path" clipPathUnits="userSpaceOnUse">
   <rect x="1749" y="2349" width="11999" height="10999"/>
  </clipPath>
  <clipPath id="presentation_clip_path_shrink" clipPathUnits="userSpaceOnUse">
   <rect x="1760" y="2359" width="11976" height="10978"/>
  </clipPath>
 </defs>
 <defs class="TextShapeIndex">
  <g ooo:slide="id1" ooo:id-list="id3"/>
 </defs>
 <defs class="EmbeddedBulletChars">
  <g id="bullet-char-template-57356" transform="scale(0.00048828125,-0.00048828125)">
   <path d="M 580,1141 L 1163,571 580,0 -4,571 580,1141 Z"/>
  </g>
  <g id="bullet-char-template-57354" transform="scale(0.00048828125,-0.00048828125)">
   <path d="M 8,1128 L 1137,1128 1137,0 8,0 8,1128 Z"/>
  </g>
  <g id="bullet-char-template-10146" transform="scale(0.00048828125,-0.00048828125)">
   <path d="M 174,0 L 602,739 174,1481 1456,739 174,0 Z M 1358,739 L 309,1346 659,739 1358,739 Z"/>
  </g>
  <g id="bullet-char-template-10132" transform="scale(0.00048828125,-0.00048828125)">
   <path d="M 2015,739 L 1276,0 717,0 1260,543 174,543 174,936 1260,936 717,1481 1274,1481 2015,739 Z"/>
  </g>
  <g id="bullet-char-template-10007" transform="scale(0.00048828125,-0.00048828125)">
   <path d="M 0,-2 C -7,14 -16,27 -25,37 L 356,567 C 262,823 215,952 215,954 215,979 228,992 255,992 264,992 276,990 289,987 310,991 331,999 354,1012 L 381,999 492,748 772,1049 836,1024 860,1049 C 881,1039 901,1025 922,1006 886,937 835,863 770,784 769,783 710,716 594,584 L 774,223 C 774,196 753,168 711,139 L 727,119 C 717,90 699,76 672,76 641,76 570,178 457,381 L 164,-76 C 142,-110 111,-127 72,-127 30,-127 9,-110 8,-76 1,-67 -2,-52 -2,-32 -2,-23 -1,-13 0,-2 Z"/>
  </g>
  <g id="bullet-char-template-10004" transform="scale(0.00048828125,-0.00048828125)">
   <path d="M 285,-33 C 182,-33 111,30 74,156 52,228 41,333 41,471 41,549 55,616 82,672 116,743 169,778 240,778 293,778 328,747 346,684 L 369,508 C 377,444 397,411 428,410 L 1163,1116 C 1174,1127 1196,1133 1229,1133 1271,1133 1292,1118 1292,1087 L 1292,965 C 1292,929 1282,901 1262,881 L 442,47 C 390,-6 338,-33 285,-33 Z"/>
  </g>
  <g id="bullet-char-template-9679" transform="scale(0.00048828125,-0.00048828125)">
   <path d="M 813,0 C 632,0 489,54 383,161 276,268 223,411 223,592 223,773 276,916 383,1023 489,1130 632,1184 813,1184 992,1184 1136,1130 1245,1023 1353,916 1407,772 1407,592 1407,412 1353,268 1245,161 1136,54 992,0 813,0 Z"/>
  </g>
  <g id="bullet-char-template-8226" transform="scale(0.00048828125,-0.00048828125)">
   <path d="M 346,457 C 273,457 209,483 155,535 101,586 74,649 74,723 74,796 101,859 155,911 209,963 273,989 346,989 419,989 480,963 531,910 582,859 608,796 608,723 608,648 583,586 532,535 482,483 420,457 346,457 Z"/>
  </g>
  <g id="bullet-char-template-8211" transform="scale(0.00048828125,-0.00048828125)">
   <path d="M -4,459 L 1135,459 1135,606 -4,606 -4,459 Z"/>
  </g>
  <g id="bullet-char-template-61548" transform="scale(0.00048828125,-0.00048828125)">
   <path d="M 173,740 C 173,903 231,1043 346,1159 462,1274 601,1332 765,1332 928,1332 1067,1274 1183,1159 1299,1043 1357,903 1357,740 1357,577 1299,437 1183,322 1067,206 928,148 765,148 601,148 462,206 346,322 231,437 173,577 173,740 Z"/>
  </g>
 </defs>
 <defs class="TextEmbeddedBitmaps"/>
 <g class="SlideGroup">
  <g>
   <g id="container-id1">
    <g id="id1" class="Slide" clip-path="url(#presentation_clip_path)">
     <g class="Page">
      <g class="Graphic">
       <g id="id3">
        <rect class="BoundingBox" stroke="none" fill="none" x="1749" y="2349" width="12000" height="11000"/>
        <defs>
         <clipPath id="clip_path_1" clipPathUnits="userSpaceOnUse">
          <path d="M 1749,2349 L 13748,2349 13748,13348 1749,13348 1749,2349 Z"/>
         </clipPath>
        </defs>
        <g clip-path="url(#clip_path_1)"/>
        <defs>
         <clipPath id="clip_path_2" clipPathUnits="userSpaceOnUse">
          <path d="M 8955,2349 L 13748,5739 13748,11261 12272,13348 7589,13348 1749,9217 1749,5536 4003,2349 8955,2349 Z"/>
         </clipPath>
        </defs>
        <g clip-path="url(#clip_path_2)">
         <path fill="rgb(0,0,0)" stroke="none" d="M -5366,-9556 L -6538,-10251 -6827,-10007 C -7647,-9312 -8416,-8483 -9140,-7501 -10056,-6261 -10591,-5271 -11082,-3925 L -11218,-3555 -11295,-3635 C -11339,-3683 -11581,-4091 -11836,-4544 -12088,-4999 -12309,-5371 -12330,-5372 -12350,-5374 -12447,-5347 -12547,-5310 L -12728,-5248 -12690,-5053 C -12669,-4947 -12624,-4626 -12587,-4336 -12551,-4052 -12469,-3454 -12406,-3017 -12343,-2575 -12306,-2212 -12326,-2208 -12343,-2208 -12336,-2194 -12309,-2184 -12284,-2170 -12273,-2149 -12290,-2131 -12325,-2100 -12119,-1029 -11973,-490 -11700,523 -11040,1763 -10678,1941 -10415,2071 -10327,2038 -9524,1518 -8691,975 -7684,354 -6710,-223 -5554,-905 -5405,-1050 -5667,-1235 -5779,-1314 -6048,-1288 -6653,-1142 -6842,-1094 -6994,-1063 -6995,-1073 -6998,-1088 -6377,-1465 -5812,-1787 -5611,-1900 -5437,-2006 -5429,-2017 -5413,-2040 -5566,-2434 -5590,-2425 -5597,-2421 -5934,-2335 -6344,-2232 -7076,-2046 -7618,-1945 -7884,-1948 -8008,-1949 -8019,-1953 -7984,-1997 -7963,-2025 -7842,-2246 -7714,-2488 -7532,-2831 -7354,-3107 -6900,-3749 -6162,-4785 -5632,-5413 -4422,-6673 -3981,-7130 -3899,-7228 -3859,-7346 -3796,-7539 -3864,-7700 -4074,-7831 -4258,-7943 -4263,-7930 -3932,-8257 -3813,-8376 -3709,-8480 -3699,-8495 -3673,-8532 -4167,-8846 -5366,-9556 L -5366,-9556 -5366,-9556 Z"/>
         <path fill="rgb(0,0,0)" stroke="none" d="M 743,-4484 C -527,-3647 -2203,-2621 -3369,-1968 -3630,-1820 -3849,-1681 -3852,-1657 -3861,-1633 -3829,-1537 -3787,-1438 -3719,-1296 -3697,-1267 -3646,-1278 -3609,-1287 -3364,-1346 -3095,-1415 -2614,-1533 -2456,-1555 -2717,-1472 -2914,-1408 -3332,-1147 -3451,-1015 -3525,-929 -3547,-880 -3540,-810 -3514,-584 -3338,-577 -2539,-754 -1878,-900 -1418,-964 -1281,-919 -1244,-905 -1201,-910 -1187,-930 -1173,-950 -1162,-947 -1156,-913 -1145,-849 -1376,-377 -1651,98 -1988,672 -2957,1981 -3539,2645 -4059,3233 -4713,3932 -5229,4443 -5421,4636 -5587,4803 -5600,4821 -5616,4844 -5534,4906 -5331,5028 -5049,5197 -5046,5204 -5117,5231 -5221,5274 -5309,5483 -5285,5621 -5273,5690 -5220,5779 -5153,5844 -5024,5966 -3161,7081 -2964,7151 -2815,7209 -2594,7197 -2452,7124 -2322,7056 -1865,6641 -1457,6230 -137,4883 805,3502 1533,1849 1668,1542 1809,1245 1850,1187 2052,902 2262,1021 2594,1601 2717,1818 2863,2046 2920,2112 3187,2405 3430,2240 3397,1785 3389,1680 3394,1588 3412,1588 3443,1580 3102,-808 2975,-1441 2734,-2670 2344,-3616 1759,-4400 1612,-4595 1466,-4785 1431,-4827 1368,-4897 1361,-4894 743,-4484 L 743,-4484 743,-4484 Z"/>
         <path fill="rgb(0,0,0)" stroke="none" d="M -18076,-15527 C -18384,-15476 -19065,-15375 -19591,-15297 -21233,-15056 -22178,-14765 -23051,-14233 -23333,-14061 -23966,-13580 -23962,-13543 -23961,-13533 -23866,-13381 -23755,-13208 -23560,-12897 -23498,-12766 -23567,-12815 -23601,-12839 -23681,-12671 -23701,-12534 -23716,-12402 -23637,-12251 -23183,-11550 -22475,-10461 -21847,-9443 -21250,-8413 -20939,-7882 -20793,-7696 -20652,-7652 -20445,-7597 -20360,-7804 -20441,-8177 -20483,-8367 -20478,-8398 -20414,-8430 -20372,-8452 -20343,-8487 -20349,-8509 -20353,-8529 -20418,-8777 -20489,-9061 -20560,-9345 -20642,-9688 -20667,-9822 L -20715,-10072 -20584,-10166 C -20426,-10282 -20327,-10281 -20005,-10161 -19428,-9952 -19053,-9730 -17939,-8942 -16764,-8112 -16445,-7847 -15337,-6787 -14981,-6449 -14598,-6104 -14483,-6023 -14287,-5884 -14260,-5874 -14149,-5903 -14081,-5920 -13984,-5977 -13928,-6032 -13799,-6166 -12697,-8030 -12616,-8254 -12547,-8455 -12579,-8642 -12712,-8813 -12797,-8920 -12796,-8933 -12714,-9086 -12665,-9173 -12599,-9285 -12564,-9334 L -12501,-9424 -12768,-9730 C -13179,-10193 -13621,-10644 -14109,-11096 -14491,-11453 -14675,-11597 -15510,-12192 -16538,-12919 -16721,-13027 -17695,-13494 -18004,-13644 -18257,-13775 -18259,-13790 -18262,-13804 -18249,-13804 -18229,-13790 -18174,-13751 -17757,-14005 -17631,-14153 -17430,-14387 -17534,-14577 -17869,-14585 -18070,-14589 -18470,-14535 -18581,-14489 -18690,-14445 -18365,-14642 -17854,-14924 -17616,-15059 -17413,-15187 -17405,-15212 -17401,-15235 -17423,-15332 -17458,-15435 L -17522,-15614 -18076,-15527 -18076,-15527 -18076,-15527 Z"/>
         <path fill="rgb(0,0,0)" stroke="none" d="M 11829,5326 C 11720,5322 11622,5327 11612,5341 11604,5353 11562,5551 11518,5779 11436,6218 11424,6253 11399,6191 11389,6168 11347,6203 11294,6278 11233,6364 11187,6521 11134,6804 11097,7028 11051,7202 11032,7198 11017,7196 10899,7069 10772,6919 9510,5443 8039,4304 6226,3398 5604,3087 4638,2675 4562,2691 4520,2696 2580,4974 2420,5207 2406,5227 2423,5264 2460,5291 2518,5332 2518,5349 2456,5413 2417,5455 2370,5563 2351,5658 2295,5938 2356,5994 3164,6397 4750,7195 5436,7598 6502,8352 7374,8969 7785,9311 8191,9763 8288,9870 8397,9978 8430,10005 8480,10045 8477,10055 8416,10086 8302,10144 7549,10254 6873,10312 L 6249,10363 6234,10507 C 6227,10584 6221,10684 6221,10727 6225,10812 6215,10809 6624,10896 6748,10923 6812,10942 6766,10940 6605,10930 6279,11006 6204,11069 6153,11111 6129,11168 6126,11239 6118,11428 6282,11483 7692,11768 9032,12037 9921,12234 10779,12448 11657,12667 11792,12659 11983,12388 12046,12299 12102,12196 12105,12155 12111,12103 12127,12088 12168,12096 12251,12120 12292,12037 12439,11561 12731,10610 12788,9731 12630,8488 12580,8094 12422,7261 12139,5877 L 12028,5333 11829,5326 11829,5326 11829,5326 Z"/>
        </g>
        <g clip-path="url(#clip_path_1)"/>
       </g>
      </g>
     </g>
    </g>
   </g>
  </g>
 </g>
</svg>